/* XPM */
static char *result[] = {
/* columns rows colors chars-per-pixel */
"64 64 135 2 ",
"   c #642D00",
".  c #6D3504",
"X  c #743501",
"o  c #773803",
"O  c #793A06",
"+  c #7D4215",
"@  c #7D4318",
"#  c #844606",
"$  c #9A5E00",
"%  c #9E6500",
"&  c #A7660D",
"*  c #AD6C11",
"=  c #74BA00",
"-  c #78CC1C",
";  c #B68106",
":  c #BD8906",
">  c #8DB800",
",  c #95B000",
"<  c #9EB502",
"1  c #9DB709",
"2  c #9CB515",
"3  c #90BE13",
"4  c #99B618",
"5  c #9CBB1E",
"6  c #A0B30B",
"7  c #A0BA0C",
"8  c #A1BA15",
"9  c #A4BF1D",
"0  c #95B526",
"q  c #9EBD21",
"w  c #96B628",
"e  c #9BBB2B",
"r  c #A0BF24",
"t  c #ABBE21",
"y  c #BEBF22",
"u  c #C38E08",
"i  c #C68712",
"p  c #C98B10",
"a  c #DFAC00",
"s  c #C5BC1B",
"d  c #C9BC1C",
"f  c #DEBC11",
"g  c #E3AF00",
"h  c #E3B000",
"j  c #F5B403",
"k  c #F9B300",
"l  c #F4BA00",
"z  c #FCBC00",
"x  c #F3B50A",
"c  c #EFB713",
"v  c #EDB916",
"b  c #ECBA1A",
"n  c #F0B710",
"m  c #C2BD21",
"M  c #D2BF23",
"N  c #DCBD2B",
"B  c #E7BD22",
"V  c #E8BC20",
"C  c #E2BF2C",
"Z  c #98C90E",
"A  c #99C814",
"S  c #A4C617",
"D  c #A3C817",
"F  c #A1C41B",
"G  c #8CC729",
"H  c #A3C324",
"J  c #ADC225",
"K  c #A4C42B",
"L  c #AAC52A",
"P  c #B0C124",
"I  c #B1C12F",
"U  c #AEC534",
"Y  c #BBDC36",
"T  c #BDD439",
"R  c #BCDA38",
"E  c #BEE138",
"W  c #FEC100",
"Q  c #FEC20B",
"!  c #FFC213",
"~  c #FFC31C",
"^  c #C0C334",
"/  c #C0C63A",
"(  c #DDC236",
")  c #DAC43D",
"_  c #C4DD36",
"`  c #E2C02D",
"'  c #FFC423",
"]  c #FFC62C",
"[  c #E0C131",
"{  c #FFC733",
"}  c #FFC835",
"|  c #FFC93C",
" . c #C0E135",
".. c #C8EB35",
"X. c #C1E439",
"o. c #C5E83C",
"O. c #ADCA41",
"+. c #B1CC44",
"@. c #B2CD4B",
"#. c #BACE5B",
"$. c #B9D05A",
"%. c #A7C464",
"&. c #ABC666",
"*. c #ADC867",
"=. c #AEC968",
"-. c #B4CC6A",
";. c #B9CF6D",
":. c #BCD263",
">. c #BDD26E",
",. c #BFD470",
"<. c #D6C744",
"1. c #D4C848",
"2. c #CECC56",
"3. c #FFCA43",
"4. c #FFCC4C",
"5. c #FFD64F",
"6. c #FFCC50",
"7. c #FFD650",
"8. c #FFDA5F",
"9. c #C1D36E",
"0. c #C0D470",
"q. c #C5D778",
"w. c #C7D87A",
"e. c #C8D97C",
"r. c #FFDA62",
"t. c #CEDD84",
"y. c #D0DE87",
"u. c #D1DF89",
"i. c #D4E18D",
"p. c #D6E291",
"a. c #D9E495",
"s. c #DEE79B",
"d. c #FFE686",
"f. c #FFE688",
"g. c #E1E9A1",
/* pixels */
"0.0.0.0.0.0.0.0.0.0.0.0.0.0.0.0.0.0.0.0.0.0.0.0.0.0.0.0.0.,.0.0.0.0.0.0.0.0.0.0.0.0.0.0.0.0.0.0.0.0.0.0.0.0.0.0.0.0.0.0.0.0.0.0.",
"0.0.0.0.0.0.0.0.0.0.0.,.0.0.0.0.0.0.0.0.0.0.0.0.0.0.0.0.0.0.0.0.0.0.0.0.0.0.0.0.0.,.0.0.0.0.0.0.0.0.0.0.0.0.0.0.0.,.0.0.0.0.0.0.",
"0.0.0.0.0.0.0.0.0.0.0.0.0.0.0.0.0.0.0.0.0.0.0.0.0.0.0.0.9.,.0.0.0.0.0.0.>.>.>.,.,.>.>.0.,.0.0.0.0.0.0.0.0.0.0.0.0.0.0.0.0.0.0.0.",
"0.0.0.0.0.0.0.0.0.0.0.0.0.0.0.0.0.0.0.0.0.0.0.0.0.0.0.0.0.0.0.0.0.0.0.0.;.-.-.>.>.-.-.;.0.0.0.0.0.0.0.0.0.0.0.0.0.0.0.0.0.0.0.0.",
"0.0.,.0.0.0.0.0.0.0.0.0.0.9.,.0.0.>.0.>.,.,.,.>.0.0.0.0.0.0.0.0.0.0.0.0.-.&.=.;.-.&.&.;.0.0.,.0.0.0.0.0.0.0.0.0.0.0.0.0.0.0.0.0.",
"0.0.,.9.0.0.0.0.0.0.0.0.0.0.0.0.0.;.-.-.>.>.-.-.>.0.0.0.0.0.0.0.0.0.0.0.>.-.-.-.-.-.;.>.0.0.0.0.0.0.0.0.0.,.0.0.0.0.0.0.0.0.0.0.",
"0.0.0.0.0.0.0.0.0.0.0.0.0.,.0.0.0.-.%.*.>.-.&.*.;.0.0.0.0.0.0.0.0.0.0.0.,.,.-.&.&.;.0.0.0.0.0.0.0.0.0.0.0.9.,.0.0.0.0.0.,.9.0.0.",
"0.0.0.0.0.0.0.0.0.0.0.0.0.0.0.0.0.;.-.-.-.-.-.-.>.0.0.0.0.0.0.0.0.0.0.,.,.,.,.-.-.>.0.0.,.9.0.0.0.0.0.0.0.0.0.0.0.0.0.0.,.0.0.0.",
"0.,.0.0.0.0.0.0.0.0.0.0.0.0.0.0.0.,.,.-.&.*.;.0.0.0.0.0.0.0.0.0.0.0.0.0.0.0.0.,.,.0.0.0.0.0.0.0.0.0.0.0.0.0.0.0.0.0.0.0.0.0.0.0.",
"0.0.0.0.0.0.0.0.0.0.0.0.0.0.0.0.0.0.0.;.-.-.>.0.0.0.0.0.0.0.0.0.0.0.0.0.0.0.0.0.0.0.9.0.0.0.0.0.0.0.0.0.0.0.0.0.0.0.0.0.,.0.0.0.",
"0.0.0.0.0.0.0.0.0.0.0.0.0.0.0.0.0.0.0.0.>.,.0.0.0.0.0.0.0.0.0.0.0.0.,.0.,.0.0.0.0.0.,.0.0.0.0.0.0.0.0.0.0.0.0.0.0.0.0.0.0.0.0.0.",
"0.0.0.0.0.0.0.0.0.0.0.0.0.0.0.,.0.0.0.0.0.0.0.0.0.0.0.0.0.0.0.0.0.0.0.0.0.0.0.0.0.0.0.0.0.0.0.0.0.0.0.0.,.0.0.0.0.0.0.0.0.0.0.0.",
"0.,.0.0.0.0.0.0.0.0.0.0.0.0.0.0.0.0.0.0.0.0.0.0.0.0.0.0.0.0.0.0.0.0.0.0.0.0.0.0.0.0.0.0.0.0.0.0.0.0.0.0.0.0.0.0.0.0.,.9.0.0.0.0.",
"0.9.0.0.0.0.0.0.,.0.0.0.0.0.0.0.0.0.0.0.0.0.0.0.0.0.0.0.0.0.0.0.0.0.0.0.0.0.0.0.0.0.0.0.0.0.0.0.0.0.0.0.0.0.0.0.0.0.,.0.0.0.0.0.",
"0.0.0.0.0.0.0.0.0.0.0.0.0.0.0.0.0.0.0.0.0.0.0.0.0.0.0.0.0.0.0.0.0.0.0.0.0.0.0.0.0.0.0.0.0.0.0.0.,.9.0.0.0.0.0.0.0.0.0.0.0.0.0.0.",
"0.0.0.0.0.0.0.0.0.0.0.0.0.,.9.0.0.0.0.0.0.0.0.0.0.0.0.0.0.0.0.0.0.0.0.0.0.0.0.0.0.0.,.0.0.0.0.0.0.0.0.0.0.0.0.0.0.0.0.0.0.0.0.0.",
"0.0.0.0.0.0.0.0.0.0.0.0.0.0.0.>.9.>.>.0.0.0.0.0.0.0.0.9.9.b j j j ( 0.0.0.0.0.,.0.0.0.0.0.0.0.0.,.0.0.0.,.0.0.,.,.0.0.0.0.0.0.0.",
"0.0.0.0.0.0.0.0.0.0.0.0.0.0.:.e e K L $.,.>.0.0.0.0.0.9.k k W 3.z k V 0.0.0.0.,.0.0.0.0.0.0.0.0.0.0.0.0.,.>.>.>.,.>.;.>.,.,.0.0.",
"0.0.0.0.0.0.0.0.,.0.,.,.0.0.:.e L H H K J S U q.0.0.9.n k W 3.r.5.z j b 0.0.,.,.0.0.0.0.0.0.,.0.0.0.0.0.0.>.-.-.>.>.-.-.;.0.0.0.",
"0.0.,.0.>.>.,.>.,.>.>.>.0.0.:.e H E E 2 S P ` ` B C 9.k z 3.r.f.5.{ z j 0.9.l l l l 2.0.,.0.,.,.0.0.0.0.0.-.&.=.;.-.&.=.;.0.0.,.",
"0.0.0.0.>.-.-.>.>.-.-.>.0.0.:.K q Y R A v z z z z j ( k 4.7.f.6.7.4.z x l l k z W z B 2.0.,.@.K e 0.0.0.0.>.;.-.=.-.-.;.>.0.0.0.",
"0.0.,.0.>.&.&.-.-.*.%.;.0.0.>.@.q Y T d l ' 4.4.| z k k 4.6.6.6.7.5.! k l z z 3.4.W k <.$.+.K H e 0.0.0.0.0.0.-.&.*.;.0.0.0.0.0.",
"0.0.0.0.>.-.-.=.-.-.-.>.0.0.0.>.q Y T s W 5.7.7.5.4.z l | 4.6.7.7.4.W g l 3.4.4.r.4.z / U H H L 0.0.0.0.0.0.0.>.-.-.>.0.0.0.0.0.",
"0.0.0.0.0.,.>.&.%.>.0.0.0.0.0.9.q E T s z 7.f.4.7.5.| l h } 4.5.5.{ z g j 4.6.5.5.' z S 2 5 o.w 0.0.0.0.0.0.0.0.0.0.0.0.0.0.0.0.",
"0.0.0.0.0.0.>.-.-.>.0.0.0.0.0.>.K 5 Y s j z 3.6.7.7.5.k h l 3.5.4.l g l 3.6.5.l | z j S R E q ,.0.0.0.0.0.0.0.0.0.0.0.0.0.0.0.0.",
"0.0.0.0.0.0.,.,.0.0.0.0.0.0.0.0.>.q _ 1 m j z 6.6.6.6.} l h l ' ] l h 3.4.7.7.| k k Z 1 4 E q ,.0.0.0.0.0.0.0.0.0.0.0.0.0.0.0.0.",
"0.0.0.0.0.0.9.0.0.0.0.0.0.0.0.0.0.>.9 < = t z 4.6.4.4.} j h * . p g W | 4.4.} h k - > 1 o.q K >.0.0.0.0.0.0.0.0.0.0.0.0.0.0.0.0.",
"0.0.0.0.0.0.,.0.0.0.0.0.0.0.0.0.0.9.>.B k k k z | 3.] l   o O O o X % z ] ' g k k k k F < H &.-.0.0.0.0.0.0.0.0.0.0.0.0.0.0.0.0.",
"0.0.0.0.0.0.0.0.0.0.0.0.0.0.0.0.9.k k W 4.3.g g k k l . o + O O O O o X h g g { 4.4.z k N =.=.>.0.0.0.0.0.9.0.0.0.0.0.0.0.0.0.0.",
"0.0.0.0.0.0.0.0.0.0.0.0.0.0.,.9.9.k W 3.4.4.] ! g h k . O . O . O X o + h g ! 4.6.4.{ z x N >.,.0.0.0.0.0.0.0.0.0.0.0.0.0.0.0.0.",
"0.0.0.0.,.0.0.0.0.0.0.0.0.0.0.9.C W | 7.6.6.6.4.} z * o O + + O + O O O ; { 4.4.6.6.7.' z x [ 0.0.0.0.0.0.0.0.0.0.0.0.0.0.0.0.0.",
"0.0.0.0.0.0.0.0.0.0.0.0.0.0.0.9.k 4.6.7.r.7.6.6.4.W   O O . O . O . + o . ~ 6.6.6.7.7.4.z k j 0.0.0.0.0.0.0.0.0.0.0.0.0.0.0.0.0.",
"0.0.0.0.,.0.0.0.0.0.0.0.0.0.9.9.k z 3.7.r.7.7.4.4.W : X O O O O + O O O u { 4.5.7.7.5.4.z x ) 0.0.0.0.0.0.0.0.0.0.0.0.0.0.0.0.0.",
"0.0.0.0.0.0.0.0.0.0.0.0.0.0.0.0.C k z { 5.7.5.{ W z h . O . O . O . O o W W z 4.5.5.4.' z b 0.0.0.0.0.0.0.0.0.0.0.0.0.0.0.0.0.0.",
"0.0.0.0.0.0.0.0.0.0.0.0.0.0.0.0.9.b b Q ~ ~ ~ z h h j $ O O O + O @ # % g g k W ' ' ' k x C 0.0.0.0.0.0.0.0.0.0.0.0.0.0.0.0.0.0.",
"0.0.0.0.0.0.0.0.,.9.0.0.0.0.0.0.0.,.0.B k h h h k 3.| W   O X O O X % ] | { h h k k k k C 0.0.0.0.0.0.0.0.0.0.0.0.0.0.0.0.0.0.0.",
"0.0.0.9.0.0.0.0.,.0.0.0.0.0.0.0.0.0.0.B k z { | 3.6.4.] W j &   i l W | 4.4.| { h z k ) 9.0.0.0.0.0.0.0.0.0.0.0.0.0.,.0.0.0.0.0.",
"0.0.0.,.0.0.0.0.0.0.0.0.0.0.0.0.0.9.c k z 4.4.7.7.7.| k h h W W ! z h k 3.7.5.4.4.3.z k [ 0.0.0.0.0.0.0.0.0.0.0.0.0.0.0.0.0.0.0.",
"0.0.0.0.0.0.0.0.0.0.0.0.0.0.0.0.0.9.c ! 4.6.7.7.7.6.} g | 3.4.4.4.4.W h 3.6.7.7.7.4.4.z ` ,.0.0.0.0.0.0.0.0.0.0.0.0.0.0.0.0.0.0.",
"0.0.0.,.0.0.0.0.0.0.0.0.0.0.0.0.0.0.n ! 4.7.7.7.r.4.{ g 3.6.6.7.7.4.W h | 4.7.7.7.5.4.z [ 0.0.0.0.0.0.0.0.0.0.0.0.0.0.0.0.0.0.0.",
"0.0.0.0.0.0.0.0.0.0.0.0.0.0.0.0.0.0.n ! 4.7.r.7.r.3.a k 4.6.7.7.7.4.Q k g 3.4.6.7.5.4.z ` 9.,.0.0.0.0.0.0.0.0.0.0.0.0.0.0.0.0.0.",
"0.0.0.0.0.0.0.0.0.0.0.0.0.0.0.0.0.9.n k ' 4.r.4.| l G k 4.7.7.7.7.4.! j <.z z | 4.4.W k ` >.0.0.0.0.0.0.0.0.0.0.9.0.0.0.0.0.,.0.",
"0.0.0.0.0.0.0.0.0.0.0.0.0.0.0.0.0.0.<.c z z z z l F = k 3.5.5.7.5.4.! x 9.<.) z W z k B 2.9.9.>.0.0.0.0.0.0.0.0.,.0.0.0.0.0.0.0.",
"0.0.0.0.0.0.0.0.0.0.0.0.0.0.0.0.0.0.0.1.( ^ J P t _ , k z 3.5.5.5.] z j 0.0.9.) ) [ ) 2.q.e.i.e.0.e.u.e.0.0.0.0.0.0.0.0.0.0.0.0.",
"0.0.0.0.0.0.0.0.0.0.0.0.0.0.0.0.0.0.0.0.#.L S 8 2 E 1 y k z { 7.' z x C 0.0.0.0.9.9.0.0.w.p.g.y.0.u.g.p.q.0.0.0.0.0.0.0.0.0.0.0.",
"0.0.0.0.0.0.0.0.0.0.0.0.0.0.0.0.0.0.0.0.O.L r X.X.5 L A c j W ' k x C 0.0.0.0.0.0.0.0.0.q.t.p.i.u.i.a.y.0.0.0.0.0.0.0.0.0.0.0.0.",
"0.9.0.0.0.0.,.0.0.0.0.9.0.0.0.0.0.0.0.0.e w ..5 H K ,.9.9.b k j k ( 0.0.0.0.0.0.0.0.0.0.0.q.e.i.g.p.w.0.0.0.0.0.0.0.0.0.0.0.0.0.",
"0.,.0.0.0.0.0.0.0.0.0.0.0.0.0.0.0.0.9.K e w 0 O.>.9.0.0.0.9.0.9.0.9.0.0.0.0.0.0.0.0.0.0.0.9.0.i.a.t.0.0.,.0.0.0.0.0.0.0.0.0.0.0.",
"0.0.0.0.0.0.0.0.0.0.0.0.0.0.0.0.0.0.0.0.0.0.0.0.0.0.0.0.0.0.0.,.0.0.0.0.0.,.0.0.0.0.0.0.0.0.0.q.e.q.0.0.0.0.0.,.0.0.0.0.0.0.0.0.",
"0.0.0.0.0.0.0.0.0.0.0.0.0.0.0.0.0.0.0.0.0.0.0.0.0.0.0.0.0.0.0.9.0.0.0.0.0.0.0.0.0.0.0.0.0.0.0.0.0.0.0.0.0.0.0.0.0.0.0.0.0.0.0.0.",
"0.0.0.,.0.0.0.0.0.0.0.0.0.0.0.0.0.0.0.0.0.0.0.0.0.0.0.0.0.0.0.0.0.0.0.0.0.0.0.0.0.0.0.0.0.0.0.0.0.0.0.0.0.0.0.0.0.0.0.0.0.0.0.0.",
"0.0.0.0.0.0.0.0.0.0.0.0.0.0.0.0.,.0.0.0.0.0.0.0.0.0.0.0.0.0.0.0.0.0.0.0.0.0.0.0.0.0.0.0.0.0.0.0.0.0.0.0.0.0.0.0.0.0.0.0.0.0.0.0.",
"0.0.0.0.0.0.0.0.0.0.,.9.0.0.0.0.0.0.0.0.0.0.0.0.0.0.0.0.0.0.0.0.0.0.0.0.0.0.0.0.0.0.0.0.0.,.0.0.0.0.0.0.0.0.0.0.0.0.0.0.0.,.0.0.",
"0.0.0.0.0.0.0.q.w.0.0.q.w.0.0.0.0.0.9.,.0.0.0.,.,.0.0.0.0.0.0.0.0.0.0.0.0.0.0.0.0.0.0.0.0.0.0.0.0.0.0.,.0.0.0.0.0.0.0.0.9.,.0.0.",
"0.0.0.0.0.0.w.i.i.e.q.t.i.t.0.0.0.0.0.0.0.0.0.0.0.0.0.0.0.0.0.0.0.0.0.0.0.0.0.,.0.0.0.0.0.0.0.0.0.0.0.9.0.0.0.0.0.0.0.0.0.0.0.0.",
"0.0.0.0.0.0.e.a.s.t.e.p.g.u.0.0.0.0.0.0.0.0.0.0.0.0.0.0.0.0.0.0.0.0.0.0.0.0.0.9.0.0.0.0.0.0.0.0.0.0.0.0.0.0.0.0.0.0.0.0.0.0.0.0.",
"0.0.0.0.0.0.q.t.i.i.i.i.i.e.0.0.0.0.0.0.0.0.0.0.0.0.0.0.0.0.0.0.0.0.0.0.0.0.0.0.,.0.0.0.0.0.0.0.0.0.0.0.0.0.0.0.0.0.,.0.0.0.0.0.",
"0.0.0.0.0.0.>.0.e.a.g.t.9.>.0.0.0.0.0.0.0.0.0.0.0.0.0.0.0.0.0.0.0.0.0.0.0.0.0.0.0.0.0.0.0.0.0.0.0.0.0.0.0.0.0.0.0.0.0.0.0.0.0.0.",
"0.0.0.0.0.0.0.0.w.t.i.e.0.0.0.0.0.0.0.0.0.0.0.0.0.0.0.0.0.0.0.0.0.,.,.0.0.0.0.0.0.0.0.0.0.0.9.0.0.0.0.0.,.0.0.0.0.0.0.0.0.0.0.0.",
"0.0.0.0.0.0.0.0.0.0.>.0.0.0.0.0.0.0.0.0.0.0.0.0.0.0.0.0.0.0.0.,.0.9.0.0.0.0.0.0.0.0.0.0.0.0.,.0.0.0.0.0.0.0.0.0.0.0.0.0.0.0.0.0.",
"0.0.9.0.0.0.0.0.0.0.0.0.0.0.9.0.0.0.0.0.0.0.0.0.0.0.0.0.0.0.0.,.0.0.0.0.0.0.0.0.0.0.0.0.0.0.0.0.9.0.0.0.0.0.0.0.0.0.0.0.0.0.0.0.",
"0.0.0.0.0.0.0.0.0.0.0.0.0.0.0.0.0.0.0.0.0.0.0.0.0.0.0.,.0.0.0.9.0.0.0.0.0.0.0.0.0.0.0.0.0.0.0.0.,.0.0.0.0.0.0.0.0.0.0.0.0.0.0.0.",
"0.0.0.0.0.0.0.0.0.0.0.0.0.0.0.0.,.,.0.0.0.0.0.0.0.0.0.0.0.0.0.0.0.0.0.0.0.0.,.0.0.0.0.0.0.0.0.0.0.,.0.0.0.0.0.0.0.0.0.0.,.0.0.9.",
"0.0.0.0.0.0.0.0.0.0.0.0.0.0.0.,.9.0.0.0.0.0.0.0.0.0.0.0.0.0.0.0.0.0.0.0.0.0.0.0.0.0.0.0.0.0.0.0.0.0.0.0.0.0.0.0.0.0.0.0.0.0.0.,."
};
