/* XPM */
static char *c05ba148b7c74b3ec444f5f163674df7ODyHlJv5dVRLgh6M[] = {
/* columns rows colors chars-per-pixel */
"64 64 211 2 ",
"   c #5F3F3B",
".  c #673F3A",
"X  c #65433E",
"o  c #6A443E",
"O  c #744A3E",
"+  c #664540",
"@  c #6C4641",
"#  c #6C4942",
"$  c #734C44",
"%  c #7A4C42",
"&  c #6C5344",
"*  c #655142",
"=  c #765147",
"-  c #7D5245",
";  c #7B5449",
":  c #7B5B4B",
">  c #755748",
",  c #76654A",
"<  c #7B7C51",
"1  c #804C43",
"2  c #835546",
"3  c #885646",
"4  c #845946",
"5  c #895946",
"6  c #835649",
"7  c #855A4B",
"8  c #8B5B4A",
"9  c #8F5648",
"0  c #935546",
"q  c #995749",
"w  c #925D4C",
"e  c #9B5B4A",
"r  c #975648",
"t  c #A55A4A",
"y  c #AD5C4C",
"u  c #A55A47",
"i  c #B15E4E",
"p  c #B35F50",
"a  c #8C624C",
"s  c #866548",
"d  c #92634D",
"f  c #9C644C",
"g  c #9C6C4D",
"h  c #83784F",
"j  c #886251",
"k  c #946D52",
"l  c #986A52",
"z  c #847753",
"x  c #8C7551",
"c  c #857C52",
"v  c #8C7D53",
"b  c #937B52",
"n  c #987652",
"m  c #A3634C",
"M  c #AB634C",
"N  c #A36B4E",
"B  c #AA684F",
"V  c #B4634E",
"C  c #B6694F",
"Z  c #B8694F",
"A  c #A66551",
"S  c #AB6451",
"D  c #A66B52",
"F  c #AE6A53",
"G  c #B56352",
"H  c #B86653",
"J  c #B46A53",
"K  c #BB6C54",
"L  c #BD6B59",
"P  c #B76A58",
"I  c #A57453",
"U  c #AC7453",
"Y  c #AB7B5C",
"T  c #A87A58",
"R  c #B57455",
"E  c #BC7355",
"W  c #B47956",
"Q  c #BE7956",
"!  c #B77658",
"~  c #BD7459",
"^  c #BC7A5A",
"/  c #B07B5A",
"(  c #BD7B61",
")  c #C1745A",
"_  c #C27B5C",
"`  c #C07257",
"'  c #C57D62",
"]  c #C87E63",
"[  c #C97F69",
"{  c #7F8552",
"}  c #828655",
"|  c #8B8253",
" . c #8B8D56",
".. c #8D8B58",
"X. c #868A57",
"o. c #928356",
"O. c #938B56",
"+. c #9C8B57",
"@. c #948458",
"#. c #958D59",
"$. c #9C8D5A",
"%. c #988054",
"&. c #8D9159",
"*. c #8D9157",
"=. c #96935A",
"-. c #9B935C",
";. c #94995C",
":. c #9C9C5E",
">. c #919057",
",. c #AC815A",
"<. c #A28D5A",
"1. c #A78859",
"2. c #B5815D",
"3. c #BC845C",
"4. c #B48C5D",
"5. c #BC8A5E",
"6. c #A2935C",
"7. c #AE945D",
"8. c #A29A5E",
"9. c #AC9A5D",
"0. c #B2995E",
"q. c #B6965F",
"w. c #9DA25E",
"e. c #95A15F",
"r. c #A4A35F",
"t. c #AAA25E",
"y. c #8E9261",
"u. c #999767",
"i. c #BC8B62",
"p. c #BC8560",
"a. c #A59E60",
"s. c #AF9B64",
"d. c #B99D62",
"f. c #BB9364",
"g. c #9CA660",
"h. c #9EAA61",
"j. c #A3A561",
"k. c #ABA563",
"l. c #A4AC62",
"z. c #AAAA63",
"x. c #B5A464",
"c. c #B2AA64",
"v. c #B8A767",
"b. c #A5B264",
"n. c #ABB465",
"m. c #ACBA67",
"M. c #AEBD68",
"N. c #A7B864",
"B. c #B3B466",
"V. c #B1BE69",
"C. c #B6BB68",
"Z. c #C5835D",
"A. c #C48B5E",
"S. c #C98B5F",
"D. c #C58461",
"F. c #C98464",
"G. c #C58D61",
"H. c #CA8D63",
"J. c #CC866A",
"K. c #CD8C6A",
"L. c #D08F6D",
"P. c #C59365",
"I. c #CB9365",
"U. c #CE9867",
"Y. c #C4956A",
"T. c #CD9669",
"R. c #C5986C",
"E. c #CD9A6C",
"W. c #C69867",
"Q. c #D09367",
"!. c #D1966B",
"~. c #D19B6D",
"^. c #CF9F70",
"/. c #D29D71",
"(. c #D29571",
"). c #C8A46A",
"_. c #D2A16F",
"`. c #C6BF6F",
"'. c #CEA171",
"]. c #CFAB75",
"[. c #D5A371",
"{. c #D5A573",
"}. c #D6A675",
"|. c #D4A472",
" X c #D7A876",
".X c #D6A876",
"XX c #D8AA78",
"oX c #DAAC7A",
"OX c #D8A778",
"+X c #ACC767",
"@X c #ADC867",
"#X c #AFC369",
"$X c #AAC566",
"%X c #B4C46B",
"&X c #BAC56B",
"*X c #B7C86C",
"=X c #B4CB6B",
"-X c #B9CA6D",
";X c #BBCD6E",
":X c #BCCF6E",
">X c #BBCC6D",
",X c #BED16F",
"<X c #BED16F",
"1X c #BAC377",
"2X c #BFD370",
"3X c #BFD370",
"4X c #C1CB6F",
"5X c #C0D470",
"6X c #C0D470",
"7X c #C4D47B",
"8X c #C6CD89",
/* pixels */
"5X5X5X5X5X5X5X5X5X5X5X5X5X5X5X5X5X2X2X2X2X<X-X-X-X-X&X&X*X-X>X;X-X&X-X>X>X-X-X-X;X6X6X6X2X5X5X5X5X5X5X5X5X5X5X5X5X5X5X5X5X5X5X5X",
"5X5X5X5X5X5X5X5X5X5X5X5X5X5X5X5X<X>X-X>X*Xn.-.#.#.$.#.#.#.-.z.j.-.-.-.r.j.-.#.#.r.&X*X%X*X<X5X5X5X5X5X5X5X5X5X5X5X5X5X5X5X5X5X5X",
"5X5X5X5X5X5X5X5X5X5X5X5X5X5X2X<X*Xl.=.j.@.N ~ ^ ~ 2.2.^ ! ^ ^ ! ^ ^ ^ ! ! ! ^ ! k 8.w.O.l.-X;X>X6X5X5X5X5X5X5X5X5X5X5X5X5X5X5X5X",
"5X5X5X5X5X5X5X5X5X5X5X5X5X2X<X%Xn.+.f f f J ) ) E F.!.~.T.~.T.T.~./.I.H.Z._ _ _ F A f f s.V.V.#X<X5X5X5X5X5X5X5X5X5X5X5X5X5X5X5X",
"5X5X5X5X5X5X5X5X5X5X5X5X2X<X-Xn.-.N E ~ ~ ~ ~ ) ) H.[.}.[.|.{.}.OXXX[.E.T.F._ Z._ ~ E ' D.<.g.M.;X2X5X5X5X5X5X5X5X5X5X5X5X5X5X5X",
"5X5X5X5X5X5X5X5X5X5X5X<X-Xm.n.c.4.E _ H.T.T.I.E.E.E.[.XX}.}.}. X XXX X{.}.|.E.T.T.H.F.F.F.F g z.V.;X2X5X5X5X5X5X5X5X5X5X5X5X5X5X",
"5X5X5X5X5X5X5X5X5X5X2X2X%Xj.#.R E ) D.T.E._.[.}.}.{.[.[.[.XXXXXXXXXX X}.XXXX{._.E.E.T.F.F.E D +.:.*X2X5X5X5X5X5X5X5X5X5X5X5X5X5X",
"5X5X5X5X5X5X5X5X5X5X<X-XB.U N E _ D.T.[._.{. X{.{._.~.E.E.~.|.|.|.|._._.|.{.{.}.|.[.~.~.!.F.^ ( Y l.;X2X2X5X5X5X5X5X5X5X5X5X5X5X",
"5X5X5X5X5X5X5X5X5X5X<X%Xc.Z._ _ F.~.}. X[. X X|.~.~.~.~.~.~.~.~.~.U.U.U.~.|.}. X|.{.|.[.[.F.] ] ^ -.-X2X<X5X5X5X5X5X5X5X5X5X5X5X",
"5X5X5X5X5X5X5X5X5X5X<X%Xv.K.J.F.F.|.}.[._.|.{._.~.!.!.!.!.Q.Q.Q.Q.I.S.S.I._.|.~._.{.[.E.E.Z._ F.D.$.&X5X<X5X5X5X5X5X5X5X5X5X5X5X",
"5X5X5X5X5X5X5X5X5X5X<X%Xv.K.J.] D.T._._.[.[.|.~.U.U.!.!.Q.Q.!.I.I.I.H.S.U.~.|._._. X{._.E.Z._ F.' #.-X5X2X5X5X5X5X5X5X5X5X5X5X5X",
"5X5X5X5X5X5X5X5X5X5X<XV.v.K.] _ D.H.E.[.}.{.[.~.U.I.U.~.U.U.~.~.U.U.U.I.~.~._.[.|. X|.[.~.F.] ] ( #.>X5X2X5X5X5X5X5X5X5X5X5X5X5X",
"5X5X5X5X5X5X5X5X5X5X<XV.c.D._ ] K.!.~.[. X{.{.{.E.U.|.|.~.~.~._.~._.|.~.~._.{.{.}.|.E.E.~.K.F.F.D.=.>X5X2X5X5X5X5X5X5X5X5X5X5X5X",
"5X5X5X5X5X5X5X5X5X5X<X%Xk.^ ` F.J.K.K./.}.}.[.[.~.{.oX X{.{.[.[.{.}.}.{.|.}.}.}.|.~.T.F.K.F.F.I.G.=.>X5X2X2X5X5X5X5X5X5X5X5X5X5X",
"5X5X5X5X5X5X5X5X5X5X<XV.k.^ E ) ' ] F.K.T.~.!.H.Z.T. X}.}.}.{.{.oXoXXX}./.!.!././.T.D.D.F.D.D.I.G.:.>X5X2X5X5X5X5X5X5X5X5X5X5X5X",
"5X5X5X5X5X5X5X5X5X5X<XV.k.^ K H L ) ] ' _ _ F.] ) F.~.|.[.|.|.}.XXOX|./.T.F.F.F.K.K.K.F.K.A.H.I.A.-.>X5X5X5X5X5X5X5X5X5X5X5X5X5X",
"5X5X5X5X5X2X5X5X5X5X<XM.9.! E G G L ) ) L ) ' ] F.K.K.T.K.K.K.!.(.(.!.K.K.J.F._ Z.H.T.T.I.I.I.I.3.=.>X5X5X5X5X5X5X5X5X5X5X5X5X5X",
"5X5X5X5X5X5X5X5X5X5X<Xb.$.R K V i V K L L ~ _ ] [ ] F.F.Z.D.F.K.K.L.K.D.F.F.F._ Z.H.I.T.I.I.T.T.5.=.-X2X5X<X<X<X<X<X<X<X<X5X5X5X",
"5X5X5X5X5X5X5X5X5X5X<XM.$.C Z i i i V G L ) ) ~ H H K E Z.A.H.~.!.T.I.D.H.G.H.I.I.I.U.E.T.I.T.E.i.-.*X2X5X>X=X=X<X<X=X=X<X5X5X5X",
"5X5X5X5X<X<X<X<X2X<X>XV.+.R K V i i i i G K E K V V K E Z.H.I.I.I.I.E.I.I.A.A.I.I.U.~.E.T.U.~./.f.=.&X5X5X=X+X@X>X=X@X@X>X5X5X5X",
"5X5X5X5X<X=X=X<X<X=X@Xm.6.~ E G i i p i i V K Z y V Z E Z.T.E.I.H.I.T.T.I.S.A.I.U.!.T.G.I.I.~.[.f.=.%X5X5X<X=X=X=X=X=X=X<X5X5X5X",
"5X5X5X5X>X+X+X=X>X@X$XN.-.E E H G G H G G V E Z y V K Q A.G.T.I.I.I.U.T.H.F.Z.G.I.I.I.G.P.G.I.E.P.-.&X2X5X5X5X>X+X@X<X5X5X5X5X5X",
"5X5X5X5X<X=X=X=X=X=X@Xb.<.^ E H H H K G i V E K G H K _ H.I.E.T.T.!.~.T.D.) _ P.I.!.T.I.I.A.G.E.Y.-.-X6X5X5X5X<X=X=X<X5X5X5X5X5X",
"5X5X5X5X5X5X>X+X$X=X>Xb.<.^ ) L H K K H H K K E L L ) Z.S.I.~.T.U.U.E.T._ ~ ) G.I.E.~.E.T._ _ P.P.-.>X2X5X5X5X2X2X2X5X5X5X5X5X5X",
"5X5X5X5X5X5X<X=X=X<X;Xb.1.! E H G V Z H L L K K G H ~ Z.S.I.~.~.T.I.I.I._ K Q G.I.T.E.^.E.E ^ G.P.=.-X2X5X5X5X5X5X5X5X5X5X5X5X5X",
"5X5X5X5X5X5X5X2X2X5X>Xb.+.! K G G V V G H H V G G G K _ S.I.T.~.~.E.P.E.H.Z.H.T.T.E.E.[.^._ _ D.5.=.&X<X5X5X5X5X5X5X5X5X5X5X5X5X",
"5X5X5X5X5X5X5X5X5X5X;Xl.$.^ K G G V V G G i i G H G K ) H.I.I.E.U.I.E.E.I.I.!.~.E.~./.[.[.] _ G.5.#.&X2X5X5X5X5X5X5X5X5X5X5X5X5X",
"5X5X5X5X5X5X5X5X5X5X>Xl.$.^ ` G V V H G i i p G G H ~ _ H.I.T.T.I.I.E.E.I.I.T.E.E.~.E.E.T.) _ F.5.#.-X5X5X5X5X5X5X5X5X5X5X5X5X5X",
"5X5X5X5X5X5X5X5X5X5X>Xl.$.^ ) H G H K H G i y y i H ) Z.H.I.E.E.E.~.E._.E.I.T.E.T.U.E.'.^.K.K.T.i.#.-X2X5X5X5X5X5X5X5X5X5X5X5X5X",
"5X5X5X5X5X5X5X5X5X5X>Xl.$.! E H G K K G G i y i G L ) F.I.I.~.~.~.~.'.'.E.T.~.~.U.I.E.|.|.T.!.T.5.=.-X2X5X5X5X5X5X5X5X5X5X5X5X5X",
"5X5X5X5X5X5X5X5X5X5X>Xl.$.! K V y V H V i i i i i G E D.T.T.~.T.F.D.E.E.E.E.E./.I.F.H./.E.I.E.E.P.-.-X2X5X5X5X5X5X5X5X5X5X5X5X5X",
"5X5X5X5X5X5X5X5X5X6X;Xb.$.! E i i V K G G i i i y V E F./.~.T.D.) E P.E.E.T.E.E.D.~ D.T.T.T.E.^.R.-.-X5X<X5X5X5X5X5X5X5X5X5X5X5X",
"5X5X5X5X5X5X5X5X5X5X;Xl.$.^ ) G i i H H G G G G i V E F./.E.T.Z.E E P.E.H.D.T.E._ E F.~.E.E.~.[.Y.-.>X5X<X5X5X5X5X5X5X5X5X5X5X5X",
"5X5X5X5X5X5X5X5X5X5X>Xl.$.~ E V G G L H G H H G i V K F.~.T.I.H.Z._ E.^.F._ H.E.D.) F.E.E.~.|.[.E.6.>X5X<X5X5X5X5X5X5X5X5X5X5X5X",
"5X5X5X5X5X5X5X5X5X5X>Xl.$.! K G G G G G p H H H G H K Z.T.I.G.I.T.I.^.^.I.D.I.E.T.H.I.T.~.~././.E.-.-X5X<X5X5X5X5X5X5X5X5X5X5X5X",
"5X5X5X5X5X5X5X5X5X5X>Xl.-.^ ` H G G i G G K V V G V V ) T.E.G.P.E.I.E.E.U.I.~.[.E.T.E.E.E.U.U.E.P.-.-X5X2X5X5X5X5X5X5X5X5X5X5X5X",
"5X5X5X5X5X5X5X5X5X5X>Xb.6.^ E G i G p G G K K V G y t R 3.p.p.G.I.I.T.E.I.H.T.E.E.E.T.T.T.H.I.T.P.-.>X5X<X5X5X5X5X5X5X5X5X5X5X5X",
"5X5X5X5X5X5X5X5X5X5X;Xb.<.^ K V i i G G i V K G e % o $ $ $ 7 Y P.E.E.E.H.A.A.P.E.E.T.T.I.Z.Z.I.i.-.>X5X<X6X5X5X5X5X5X5X5X5X5X5X",
"5X5X5X5X5X5X5X5X5X5X<Xl.+.^ K V i i V G G H B q %   X # # + + $ l P.E.I.H.G.G.E.E.E.E.E.I.E E G.G.#.>X6X<X5X5X5X5X5X5X5X5X5X5X5X",
"5X5X5X5X5X5X5X5X5X2X<Xl.+.E K V V V H H G i q % X X o $ $ = # X # I A.A.Z._ D.E.E.T.T.E.E._ ) F.G.6.;X6X2X2X5X5X5X5X5X5X5X5X5X5X",
"5X5X5X5X5X5X5X2X2X<X;Xz.1.^ ` G G H ) H G t 1 @ $ O O O % 4 ; $ @ a 5.G._ ~ D.[.E.G.P.E.|.] _ G.A.6.;X6X<X;X2X5X5X5X5X5X5X5X5X5X",
"5X5X5X5X5X5X5X6X5X<X%Xq.^ _ ) H G K K G i M $ $ - 2 2 2 2 7 6 ; $ ; p.T._ ~ F.|.E.A.I.E./._ ) Z.A.).`.;X<X<X5X5X5X5X5X5X5X5X5X5X",
"5X5X5X5X5X5X5X5X6X<Xc.! ) ) ` H H L K G G G $ $ 2 2 8 d 8 8 8 7 6 $ k R.Z.~ K.E.I.A.I.^.T.) ) Z.A.E.].c.-X*X<X5X5X5X5X5X5X5X5X5X",
"5X5X5X5X5X5X5X6X;X-Xt.J E K K H G K K G G S @ % 2 8 w w 8 8 8 8 7 $ j R.I.I.E.E.P.A.I.}.[.I.H.S.I.~.'.s.z.-X2X5X5X5X5X5X5X5X5X5X",
"5X5X5X5X5X5X5X6X>X*.b B K V Z G G K K G y e o - 2 8 w 8 8 8 2 8 8 $ : R.E.U.I.E.I.I.E.}.OX!.H.H.I.E.T.T b k.-X<X5X5X5X5X5X5X5X5X",
"5X5X5X2X<X5X5X<X%Xv 5 M K K Z G G V H V y 0 . - 8 8 8 8 8 8 8 8 7 $ ; R.E.I.I.I.I.I.U.E./.H.Z.A.A.H.U.E.Y.d.8.%X;X<X5X5X5X5X5X5X",
"5X5X5X;X*X<X;XC.g e M G K K Z G G V V y y 0 . - 8 8 8 5 8 8 8 8 6 = ; Y.E.I.U.E.H.Z.G.I.T.H.Z.Z.Z.S.U.|.E.P.i.c.M.&X2X5X5X5X5X5X",
"5X5X2X;X<X&X0.Q C Z K K K ` ` H G K Z V G q o - 8 8 8 3 8 8 2 8 2 $ = Y.T.I.I.E.D.~ _ I.I.I.H.A.A.G.G.T.T.T.E.s.8.z.<X5X5X5X6X5X",
"2X2X2X;X&XU E ) ) ` K H K L L K K ` K G H S $ 6 8 8 8 8 8 8 3 3 2 $ ; Y.D.) D.T.H.Z.Z.H.I.T.G.D a a 4 W I.I.E.R.P.1.-X-X;X<X2X2X",
"2X2X>Xl.N H E K E E H H G H G K _ _ ~ G G J $ - 2 8 8 w 8 8 8 8 2 % 4 G._ K _ T.H.G.S.S.H.T.p.d v o.b U D.I.!.E.E.4.C.:.z.V.>X2X",
"2X2X-XO.m Z H H G G f %.> x 4 J ] _ ` H H P ; - 2 8 8 8 8 d d 8 6 $ 7 3.E K ) H.I.I.T.S.A.U.T.P.P.Y.p.f d W I.!.U.G.P.P.P.4.z.;X",
"-X&Xn.a u G K P J m 8...< } h D ` K K K K J 6 ; 2 8 w 8 8 8 8 6 - # 5 U ! ) Z.H.U.~.I.U U H.~./.E.E.i.a x <.0.5.3.A.P.P.W.x.-X2X",
"b.w.6.m t F d.v.x.O.&.} {  .& q i G H K K S 6 $ 2 7 8 7 6 4 ; $ # & & b W H.T.U.E.E.2.; 4 3.T.U.A.I.i.d v 8.-.B.&X4X4X4X4X;X6X5X",
"%Xw.| a 4 a k.k.j.&.h.} h 5 0 t y y y m w 3 - $ & > & * & z , & , &.< v W I.E.T.I.E.,.v z d f f W I.I.W I I I 8.-X;X6X6X6X5X5X5X",
"%XN. .w.r.n.1X1Xu.u...z - m G V i y t b :.w.w.w.l.n.b.l.n.&X*X&X&X%XX.v U P.E.U.I.E.2.o.c h c | 6.P.I.A.A.A.P.6.:.N.<X2X5X5X5X5X",
">X*X#X-X&X*X7X8Xu.8 w 9 r V H V i y N -.M.m.%X>X<X<X<X;X5X5X5X5X5X<Xb.>.n U ^ I.E.I.3./ I c } ;.z.9.9.9.0.0.9.=.g.M.<X5X5X5X5X5X",
"2X<X<X<X<X;XV.y.: J K K V S y t u B 7.&X;X>X<X5X5X5X5X5X5X5X5X5X5X2X<X*Xn.x n G.I.H.G.P.P.a , #.l.;.=.;.=.:.=.;.l.%X<X5X5X5X5X5X",
"5X5X5X5X5X*Xh.;.v H H G A 6 2 b s B.&X-X>X>X2X5X5X5X5X5X5X5X5X5X5X5X2X<XM.V.-.g 3.I.I.U.T.2.T @.j.b.m.m.M.%X%X%XM.*X2X5X5X5X5X5X",
"5X5X5X5X<Xl.v b 2 q t e a | V.-X&X-X*X<X<X2X5X5X5X5X5X5X5X5X5X5X5X5X2X2X<X<XV.@.,.d.d.3.3.T.G.T a.n.*X<X<X2X<X<X<X2X2X2X5X5X5X5X",
"5X5X2X2X*XX.k N f v v v | V.<X2X2X<X<X6X5X5X5X5X5X5X5X5X5X5X5X5X5X5X2X2X5X5X<X*Xa.8.-.+.<.T.I.A.x.w.m.>X6X5X5X5X2X2X2X2X5X5X5X5X",
"5X5X5X<X>X;.$.7.9.w.w.&X-X<X5X5X5X2X5X5X5X5X5X5X5X5X5X5X5X5X5X5X5X5X5X5X5X5X5X2X;X%Xg.w.j.3.3.3.0.&.N.;X5X5X5X5X2X5X5X5X5X5X5X5X",
"5X5X5X2X2X>X;X;X;X-X>X2X2X5X5X5X6X5X5X5X5X5X5X5X5X5X5X5X5X5X5X5X5X5X5X5X5X5X5X5X5X<X>X-X*X8.-.#...X.b.<X5X5X5X5X5X5X5X5X5X5X5X5X",
"5X5X5X6X5X5X5X5X6X<X2X5X5X5X5X5X6X5X5X5X5X5X5X5X5X5X5X5X5X5X5X5X5X5X5X5X5X5X5X5X5X5X5X5X2X;X-Xn.b.e.N.<X5X5X5X5X5X5X5X5X5X5X5X5X",
"5X5X5X5X5X5X5X5X5X5X5X5X5X5X5X5X6X5X5X5X5X5X5X5X6X5X5X5X5X5X5X5X5X5X5X5X5X5X5X5X5X5X5X5X5X5X6X<X<X>X<X2X5X5X5X5X5X5X5X5X5X5X5X5X"
};
