/* XPM */
static char *_2a81650e28d4e4ed7734d3372d9f6a6vYeLoePceJQAgsYL[] = {
/* columns rows colors chars-per-pixel */
"64 64 88 1 ",
"  c #A7C465",
". c #A9C565",
"X c #AAC666",
"o c #ABC766",
"O c #ACC767",
"+ c #ADC867",
"@ c #AEC868",
"# c #AFC968",
"$ c #B0CA69",
"% c #B1CA69",
"& c #B1CB69",
"* c #B2CB69",
"= c #B2CB6A",
"- c #B3CB6A",
"; c #B3CC6A",
": c #B4CC6A",
"> c #B4CC6B",
", c #B5CD6B",
"< c #B6CD6B",
"1 c #B6CE6B",
"2 c #B6CE6C",
"3 c #B7CE6C",
"4 c #B7CF6C",
"5 c #B8CF6C",
"6 c #B9CF6D",
"7 c #B9D06D",
"8 c #BAD06D",
"9 c #BBD06D",
"0 c #BBD16E",
"q c #BCD16E",
"w c #BCD26E",
"e c #BDD26E",
"r c #BDD26F",
"t c #BED36F",
"y c #BFD36F",
"u c #BFD370",
"i c #BFD470",
"p c #C0D470",
"a c #C0D471",
"s c #C1D471",
"d c #C1D571",
"f c #C1D572",
"g c #C2D572",
"h c #C2D573",
"j c #C2D674",
"k c #C3D674",
"l c #C3D675",
"z c #C4D675",
"x c #C4D776",
"c c #C5D777",
"v c #C5D878",
"b c #C6D879",
"n c #C7D87A",
"m c #C7D97B",
"M c #C8D97B",
"N c #C8D97C",
"B c #C9DA7C",
"V c #C9DA7D",
"C c #CADA7E",
"Z c #CBDB80",
"A c #CDDC82",
"S c #CDDC83",
"D c #CDDD83",
"F c #CEDD84",
"G c #CEDD85",
"H c #CFDE86",
"J c #D0DE87",
"K c #D0DF88",
"L c #D1DF89",
"P c #D2E08A",
"I c #D3E08B",
"U c #D3E08C",
"Y c #D3E18C",
"T c #D4E18C",
"R c #D4E18D",
"E c #D5E28E",
"W c #D6E28F",
"Q c #D6E391",
"! c #D8E393",
"~ c #D8E493",
"^ c #DAE596",
"/ c #DBE597",
"( c #DDE79A",
") c #DEE79B",
"_ c #DFE89D",
"` c #E1E9A0",
"' c #E1EAA0",
"] c #E3EBA3",
/* pixels */
"pppppppppppppppppppppppppppppppppppppppppppppppppppppppppppppppp",
"pppppppppppppppppppppppppppppppppppppppppppppppppppppppppppppppp",
"ppppppppppppppppppppppppppppppppppppyyyuyyyypppppppppppppppppppp",
"pppppppppppppppppppppppppppppppppppp7*:y7;*7pppppppppppppppppppp",
"pppppppppppppppppyyypuyyippppppppppp:X#62+O6pppppppppppppppppppp",
"ppppppppppppppppp7*2y7::yppppppppppp7:****:ypppppppppppppppppppp",
"ppppppppppppppppp: #72XO6ppppppppppppp2XO6pppppppppppppppppppppp",
"ppppppppppppppppp7;****:yppppppppppppp7::ypppppppppppppppppppppp",
"ppppppppppppppppppu:X+7ipppppppppppppppiippppppppppppppppppppppp",
"ppppppppppppppppppp7*:yppppppppppppppppppppppppppppppppppppppppp",
"pppppppppppppppppppuyyippppppppppppppppppppppppppppppppppppppppp",
"pppppppppppppppppppppppppppppppppppppppppppppppppppppppppppppppp",
"pppppppppppppppppppppppppppppppppppppppppppppppppppppppppppppppp",
"pppppppppppppppppppppppppppppppppppppppppppppppppppppppppppppppp",
"pppppppppppppppppppppppppppppppppppppppppppppppppppppppppppppppp",
"pppppppppppppppppppppppppppppppppppppppppppppppppppppppppppppppp",
"pppppppppppppppppppppppppppppppppppppppppppppppppppppppppppppppp",
"pppppppppppppppppppppppppppppppppppppppppppppppppppppy7yyyy7yppp",
"ppppppppppppppppppppppppppppppppppppppppppppppppppppp6*;y7**7ppp",
"ppppyyyyuyyyppppppppppppppppppppppppppppppppppppppppp2O#62++6ppp",
"pppp7*;7y:*7pppppppppppppppppppppppppppppppppppppppppy2;**:2yppp",
"pppp6O+26#X:ppppppppppppppppppppppppppppppppppppppppppp6O+7ppppp",
"ppppy:****:7pppppppppppppppppppppppppppppppppppppppppppy:2yppppp",
"pppppp6OX2pppppppppppppppppppppppppppppppppppppppppppppppppppppp",
"ppppppy::7pppppppppppppppppppppppppppppppppppppppppppppppppppppp",
"pppppppiippppppppppppppppppppppppppppppppppppppppppppppppppppppp",
"ppppppppppppppppppppppppppppppppppppppppy2:yy6:7pppppppppppppppp",
"pppppppppppppppppppppppppppppppppppppppp7+O6y*X:pppppppppppppppp",
"pppppppppppppppppppppppppppppppppppppppp7;*;:**6pppppppppppppppp",
"ppppppppppppppppppppppppppppppppppppppppyy6#X:yypppppppppppppppp",
"ppppppppppppppppppppppppppppppppppppppppppy;*6pppppppppppppppppp",
"ppppppppppppppppppppppppppppppppppppppppppyy7ypppppppppppppppppp",
"pppppppppppppppppppppppppppppppppppppppppppppppppppppppppppppppp",
"pppppppppppppppppppppppppppppppppppppppppppppppppppppppppppppppp",
"pppppppppppppppppppppppppppppppppppppppppppppppppppppppppppppppp",
"pppppppppppppppppppppppppppppppppppppppppppppppppppppppppppppppp",
"pppppppppppppppppppppppppppppppppppppppppppppppppppppppppppppppp",
"pppppppppppppppppppppppppppppppppppppppppppppppppppppppppppppppp",
"ppppppppppppppppppppppkkppkkpppppppppppppppppppppppppppppppppppp",
"pppppppppppppppppppppnPLnxHYCppppppppppppppppppppppppppppppppppp",
"pppppppppppppppppppppS_)ZC/`Hppppppppppppppppppppppppppppppppppp",
"pppppppppppppppppppppnJEEEELMppppppppppppppppppppppppppppppppppp",
"pppppppppppppppppppppppZ)_Sppppppppppppppppppppppppppppppppppppp",
"pppppppppppppppppppppppnLPnpppppppppppppppppkZJMpCLCpppppppppppp",
"ppppppppppppppppppppppppkkppppppppppppppppppnQ`JpP`Ekppppppppppp",
"ppppppppppppppppppppppppppppppppppppppppppppxH!YJE~Hpppppppppppp",
"pppppppppppppppppppppppppppppppppppppppppppppxCE`Enkpppppppppppp",
"ppppppppppppppppppppppppppppppppppppppppppppppkH/Hpppppppppppppp",
"pppppppppppppppppppppppppppppppppppppppppppppppxCxpppppppppppppp",
"pppppppppppppppppppppppppppppppppppppppppppppppppppppppppppppppp",
"pppppppppppppppppppppppppppppppppppppppppppppppppppppppppppppppp",
"pppppppppppppppppppppppppppppppppppppppppppppppppppppppppppppppp",
"pppppppppppppppppppppppppppppppppppppppppppppppppppppppppppppppp",
"pppppppxxppxnkpppppppppppppppppppppppppppppppppppppppppppppppppp",
"ppppppnPECxHQZpppppppppppppppppppppppppppppppppppppppppppppppppp",
"ppppppC/)HC!`Jpppppppppppppppppppppppppppppppppppppppppppppppppp",
"ppppppxSPEEYJMpppppppppppppppppppppppppppppppppppppppppppppppppp",
"ppppppppC/`Hpppppppppppppppppppppppppppppppppppppppppppppppppppp",
"ppppppppxHLMpppppppppppppppppppppppppppppppppppppppppppppppppppp",
"pppppppppppppppppppppppppppppppppppppppppppppppppppppppppppppppp",
"pppppppppppppppppppppppppppppppppppppppppppppppppppppppppppppppp",
"pppppppppppppppppppppppppppppppppppppppppppppppppppppppppppppppp",
"pppppppppppppppppppppppppppppppppppppppppppppppppppppppppppppppp",
"pppppppppppppppppppppppppppppppppppppppppppppppppppppppppppppppp"
};
