/* XPM */
static char *_27d52ba5e0b42b6dd519cd83b1b3aaeHe3jc6AMrTVtGooV[] = {
/* columns rows colors chars-per-pixel */
"64 64 241 2 ",
"   c #641C38",
".  c #7B3139",
"X  c #5E1B37",
"o  c #78403F",
"O  c #723448",
"+  c #6C2F47",
"@  c #774A53",
"#  c #7D5668",
"$  c #8A303B",
"%  c #B3293F",
"&  c #A0493D",
"*  c #893A47",
"=  c #973648",
"-  c #8D2C49",
";  c #AB2743",
":  c #AE3646",
">  c #DA3859",
",  c #C93750",
"<  c #E5395A",
"1  c #EE3D63",
"2  c #FF3D74",
"3  c #FF3B6F",
"4  c #8A4549",
"5  c #994849",
"6  c #995449",
"7  c #884954",
"8  c #954B54",
"9  c #8F5055",
"0  c #975856",
"q  c #A84D4A",
"w  c #A3524B",
"e  c #AB584D",
"r  c #A64C54",
"t  c #A85A54",
"y  c #B45B55",
"u  c #B65050",
"i  c #97654C",
"p  c #8B6656",
"a  c #9D6458",
"s  c #997D57",
"d  c #8A7350",
"f  c #AB675A",
"g  c #B86757",
"h  c #BA745C",
"j  c #A67454",
"k  c #945665",
"l  c #885664",
"z  c #B15969",
"x  c #846768",
"c  c #9A6767",
"v  c #977567",
"b  c #9B7274",
"n  c #8E6F72",
"m  c #A86768",
"M  c #B86A66",
"N  c #A46E79",
"B  c #B66B74",
"V  c #A47675",
"C  c #B67579",
"Z  c #B37567",
"A  c #CF475C",
"S  c #C46D59",
"D  c #C4775E",
"F  c #D4785A",
"G  c #C65766",
"H  c #D85468",
"J  c #CF506C",
"K  c #E94A69",
"L  c #E95C77",
"P  c #F04D70",
"I  c #CA6767",
"U  c #CB7A69",
"Y  c #D77967",
"T  c #C57B76",
"R  c #CF7077",
"E  c #E86878",
"W  c #EB6E73",
"Q  c #99855A",
"!  c #A38759",
"~  c #A29D5E",
"^  c #9D9366",
"/  c #9B8C70",
"(  c #B9846A",
")  c #A5996A",
"_  c #A49D78",
"`  c #B99875",
"'  c #AE8772",
"]  c #A9A869",
"[  c #ACB669",
"{  c #B1BA6E",
"}  c #ACAB75",
"|  c #AAAA7A",
" . c #A8A575",
".. c #B5A978",
"X. c #ADBA73",
"o. c #B4B777",
"O. c #C98569",
"+. c #D3886A",
"@. c #D9946D",
"#. c #C98676",
"$. c #DA8678",
"%. c #DA9C7D",
"&. c #D59775",
"*. c #C19871",
"=. c #E3857B",
"-. c #E59878",
";. c #F3836F",
":. c #D8A47B",
">. c #C7A176",
",. c #E6A97E",
"<. c #ABC666",
"1. c #ADC768",
"2. c #B4CC6A",
"3. c #B9CD6D",
"4. c #B7C46D",
"5. c #BCD26E",
"6. c #BCCB73",
"7. c #B8C478",
"8. c #BFD470",
"9. c #AFC070",
"0. c #C0D470",
"q. c #C8D97C",
"w. c #C5D679",
"e. c #977A83",
"r. c #8C7E87",
"t. c #FC5882",
"y. c #D47883",
"u. c #F96786",
"i. c #E97D8A",
"p. c #F47988",
"a. c #FA7892",
"s. c #9C9495",
"d. c #96888D",
"f. c #A68689",
"g. c #B69589",
"h. c #A69895",
"j. c #B6979A",
"k. c #AC938A",
"l. c #B9B683",
"z. c #A9A297",
"x. c #B3A29A",
"c. c #ABA888",
"v. c #ACA9A8",
"b. c #B8A7AA",
"n. c #BEB9A9",
"m. c #BAB4B5",
"M. c #AEA099",
"N. c #DA978A",
"B. c #C69A97",
"V. c #D79A95",
"C. c #CD8E88",
"Z. c #EA8886",
"A. c #F5878C",
"S. c #E7968A",
"D. c #F68898",
"F. c #E59C95",
"G. c #F49897",
"H. c #F28E8E",
"J. c #DAA787",
"K. c #D3B094",
"L. c #E6AA86",
"P. c #EAB689",
"I. c #F2B88D",
"U. c #E8A997",
"Y. c #E7B895",
"T. c #F4BA95",
"R. c #F5AC96",
"E. c #C49EA8",
"W. c #FC9BA5",
"Q. c #FC97A6",
"!. c #FE8FA3",
"~. c #C8AAA6",
"^. c #CBB1A7",
"/. c #D2A8B8",
"(. c #D4B4BC",
"). c #CDB0B1",
"_. c #E8ACA2",
"`. c #F7ABA6",
"'. c #EAB8AA",
"]. c #F4B6AC",
"[. c #EFB9B9",
"{. c #BAC086",
"}. c #CEDD84",
"|. c #D0DE87",
" X c #D1DF89",
".X c #C1C987",
"XX c #FCC49C",
"oX c #F7C699",
"OX c #FAD39D",
"+X c #EAC29A",
"@X c #D4E18D",
"#X c #D9E495",
"$X c #EEC8A4",
"%X c #F5CBA4",
"&X c #FDCBA3",
"*X c #F7C8A6",
"=X c #FCD1A5",
"-X c #FCD4AC",
";X c #FCDAAD",
":X c #E7C7B7",
">X c #F7C7B7",
",X c #FCD5B3",
"<X c #FCDAB5",
"1X c #FDDABA",
"2X c #F9D6BC",
"3X c #EAD1BB",
"4X c #E1E9A1",
"5X c #FDE0B6",
"6X c #DFC6B9",
"7X c #BEBCC1",
"8X c #D7BAC4",
"9X c #E7B9C6",
"0X c #DCC4CA",
"qX c #D2CDD3",
"wX c #DAD6DB",
"eX c #CAC7CC",
"rX c #E8C5CA",
"tX c #F8CBC1",
"yX c #FCDCCC",
"uX c #FAD7C5",
"iX c #E9CAD3",
"pX c #EAD4D9",
"aX c #F2DCDE",
"sX c #FDDFD2",
"dX c #ECD1C6",
"fX c #FBE1CA",
"gX c #FAE2D5",
"hX c #D9DDE1",
"jX c #EADDE2",
"kX c #F3DEE4",
"lX c #F4D6E1",
"zX c #ECE6E9",
"xX c #F2E2E4",
"cX c #F4E5E9",
"vX c #F4EBEC",
"bX c #F8E6EB",
"nX c #ECECF1",
"mX c #F8EEF1",
"MX c #FAF4F4",
"NX c #F5F4F6",
"BX c #F7F0EF",
/* pixels */
"0.0.0.0.0.0.0.0.0.0.0.0.0.0.0.0.0.0.0.0.0.0.0.0.0.0.0.0.0.0.0.0.0.0.0.0.0.0.0.0.0.0.0.0.0.0.0.0.0.0.0.0.0.0.0.0.0.0.0.0.0.0.0.0.",
"0.0.0.0.0.0.0.0.0.0.0.0.0.0.0.0.0.0.0.0.0.0.0.0.0.0.0.0.0.0.0.0.0.0.0.0.0.0.0.0.0.0.0.0.0.0.0.0.0.0.0.0.0.0.0.0.0.0.0.0.0.0.0.0.",
"0.0.0.0.0.0.0.0.0.0.0.0.0.0.0.0.0.0.0.0.0.0.0.0.0.0.0.0.0.0.0.0.0.0.0.0.5.5.5.8.5.5.5.5.0.0.0.0.0.0.0.0.0.0.0.0.0.0.0.0.0.0.0.0.",
"0.0.0.0.0.0.0.0.0.0.0.0.0.0.0.0.0.0.0.0.0.0.0.0.0.0.0.0.0.0.0.0.0.0.0.0.5.2.2.5.5.2.2.5.0.0.0.0.0.0.0.0.0.0.0.0.0.0.0.0.0.0.0.0.",
"0.0.0.0.0.0.0.0.0.0.0.0.0.0.0.0.0.5.5.5.0.8.5.5.8.0.0.0.0.0.0.0.0.0.0.0.2.<.1.3.2.1.1.3.0.0.0.0.0.0.0.0.0.0.0.0.0.0.0.0.0.0.0.0.",
"0.0.0.0.0.0.0.0.0.0.0.0.0.0.0.0.0.5.2.2.5.5.2.2.5.0.0.0.0.0.0.0.0.0.0.0.5.2.2.2.2.2.2.5.0.0.0.0.0.0.0.0.0.0.0.0.0.0.0.0.0.0.0.0.",
"0.0.0.0.0.0.0.0.0.0.0.0.0.0.0.0.0.2.<.1.5.2.<.1.3.0.0.0.0.0.0.0.0.0.0.0.0.0.2.<.1.3.0.0.0.0.0.0.0.0.0.0.0.0.0.0.0.0.0.0.0.0.0.0.",
"0.0.0.0.0.0.0.0.0.0.0.0.0.0.0.0.0.5.2.2.2.2.2.2.5.0.0.0.0.0.0.0.0.0.0.0.0.0.5.2.2.5.0.0.0.0.0.0.0.0.0.0.0.0.0.0.0.0.0.0.0.0.0.0.",
"0.0.0.0.0.0.0.0.0.0.0.0.0.0.0.0.0.8.8.2.<.1.5.0.0.0.0.0.4.4.3.3.3.4.0.0.0.8.0.8.8.0.0.0.0.0.0.0.0.0.0.0.0.0.0.0.0.0.0.0.0.0.0.0.",
"0.0.0.0.0.0.0.0.0.0.0.0.0.0.0.0.0.0.0.5.2.2.5.0.0.0.[ { ] ` ` ` ` ) } ] 0.0.0.0.0.0.0.0.0.0.0.0.0.0.0.0.0.0.0.0.0.0.0.0.0.0.0.0.",
"0.0.0.0.0.0.0.0.0.0.0.0.8.0.0.0.0.0.d 8.5.5.0.0.~ ) } K.K.%X%X%X*X$XY.K.c.[ 0.0.0.0.0.0.0.0.0.0.0.0.0.0.0.0.0.0.0.0.0.0.0.0.0.0.",
"0.0.0.0.0.0.0.0.0.0.0.0.0.0.0.0.0.k.C.C x 0.0.] o.Y.$X,X,X<X<X<X1X1X,X,X%XJ.] 0.0.0.0.0.0.0.0.0.0.0.0.0.0.0.0.0.0.0.0.0.0.0.0.0.",
"0.0.0.0.0.0.0.0.0.0.0.0.0.6.4.4.0.m D.D.z Q Q ] >X,X1X1X<X<X<X<X1X1X1X1X1X=X+X.. .0.0.0.0.0.0.0.0.0.0.0.0.0.0.0.0.0.0.0.0.0.0.0.",
"0.0.0.0.0.0.0.0.0.0.0.0.0.k.7 4 4 r y.a.L : ' $X1X1X1X1X<X<X<X<X1X1X1X1X<X<X1X$X` | 6.0.0.0.0.0.0.0.0.0.0.0.0.0.0.0.0.0.0.0.0.0.",
"0.0.0.0.0.0.0.0.0.0.0.0.0.B D.G.D.H , P A t J.-X1X1X1X1X1X<X<X<X1X1X1X1X1X1X1X,XY.' 0.0.0.0.0.0.0.0.0.0.0.0.0.0.0.0.0.0.0.0.0.0.",
"0.0.0.0.0.0.0.0.0.0.0.0.0.C H u.u.P < > : ` %X;X1X1X1X1X1X<X<X<X<X1XuX1X1X1X5X<XoX*. .0.0.0.0.0.0.0.0.0.0.0.0.0.0.0.0.0.0.0.0.0.",
"0.0.0.0.0.0.0.0.0.0.0.0.0.8.N $ = E P , f Y.,X<X1X1X,X;X<X1X<X,X<X<X<X1X<X1X1X;X;XY.Z 0.0.0.0.0.0.0.0.0.0.0.0.0.0.0.0.0.0.0.0.0.",
"0.0.0.0.0.0.0.0.0.0.0.0.0.8.f.m y.E P % ( *X;X;X1X,XoX=X1X<X-X+X%X;X,X<X;X,X,X=X,X&X>._ 0.0.0.0.0.0.0.0.0.5.5.5.5.5.5.5.5.0.0.0.",
"0.0.0.0.0.0.8.0.0.0.0.0.0.0.B G H , : : >.&X=X=X-X&XP.oX-X,X%X:.Y.-X,X,X=X&X=X&X&XOXJ. .7.0.0.0.0.0.0.0.0.5.2.2.5.5.2.2.5.0.0.0.",
"0.0.0.0.5.5.5.5.7.} 5.5.0.0.0.V * u u f I.OXOX&X&XP.@.I.OX&XoXO.&.*X&X&XXXT.&XXXXX&XoX` 7.0.0.0.0.0.8.0.0.X.[ 1.3.2.1.1.3.0.0.0.",
"0.0.0.0.5.1.h.m.n.v.c.] 0.w.w.7.V H H 0 I.&X&X&X&X%.h P.oXXXT.$.U L.XXT.I.,.XXXXXX&XoX( 6.0.0.0.0.w.0.4.c.v.n.m.X.1.2.2.5.0.0.0.",
"0.0.0.0.3.1.c.qXnXnXqXm.h._ 0.6.C A A 8 P.&X&X&XR.=.S +.-.-.-.;.=.U -.-.@.O.P.I.XX&XI.Z 6.0.0.0.0.4.z.b.qXnXnXqX<.1.5.0.0.0.0.0.",
"0.0.0.0.5.2.c.eXnXxXcXmXwX(.k.6.o.t * 8 :.XXXXI.Y Y S.h S S S Z.`.$.S h h S Y L.oXXXP.a } 0.0.| f.).jXvXxXcXNXeX9.2.5.0.0.0.0.0.",
"0.0.0.0.8.8.3.s.pXBXxXxXcXvX8Xc.7.0.0.a &.T.oXL.I $.0 * T U T _.tX].J.6 @ #.Y %.P.I.,.e } 0...g.8XxXcXkXcXmXxX).0.0.0.0.0.0.0.0.",
"0.0.0.0.0.0.5.c.).cXMXmXxXxXcX0Xx. ./ i +.L.L.L.y 0 x + 4 C.].>XyX:Xn # + 4 g &.J.J.@.w ) l./.pXcXxXaXbXMXvX8X.X0.0.0.0.0.0.0.0.",
"0.0.0.0.0.0.0.8.z.(.cXNXNXcXkXkX0X' Q s h @.&.%.f x b.# @ ^.uXyXfX6Xn s.# O M +.&.&.( 6 Q B.pXcXxXvXNXNXmX8Xj.0.0.0.0.0.0.0.0.0.",
"0.0.0.0.0.0.0.0._ j.pXvXMXMXbXkXpX/.b d t +.O.%.#.V n O n gXyXfXfXyXj.l O 5 $.+.+.D f s k (.pXlXmXNXMXmXlXj.{ 0.0.0.0.0.0.0.0.0.",
"0.0.0.0.0.0.0.0.0.f.~.rXkXMXMXvXrX9X/.n i y D +.#.m +   n sXyXuXsXsXg.. X 8 $.O.O.g 5 @ E.9X9XaXMXMXkXiX/.l.0.0.0.0.0.0.0.0.0.0.",
"0.0.0.0.0.0.0.0.0.0.h.f.(.pXxXaXiX[.9X/.l 5 g S U C.w 5 B.yXuX].tXyX'.a 8 U %.g g w 4 E.9X9XiXkXxXpX(...l.0.0.0.0.0.0.0.0.0.0.0.",
"0.0.0.0.0.0.0.0.0.0.0.x.b.pXxXxXaXrX[.9XN w g y M G.S.V.tXfXyXuXuXfXuX'.V.H.$.e g w 8 9X9XrXaXxXxXiXj.x.0.0.8.0.0.0.0.0.0.0.0.0.",
"0.0.0.0.0.0.0.0.0.0.0.h.8XkXkXjXaXpXiX9XN t O.e 5 F.>XyXyXfXyXyXfXfXsXuX>XS.t 6 O.f 9 9XrXpXjXxXzXcX0X7.6.0.0.0.0.0.0.0.0.0.0.0.",
"0.0.0.0.0.0.0.0.0.0.0.0.b.pXcXvXvXvXlXrXb f L.O.q m V.>X>X3X2X>X>XuX>X_.B.f & D :.( 8 rXpXzXnXvXxXpXb.0.6.8.0.0.0.0.0.0.0.0.0.0.",
"0.0.0.0.0.0.0.0.0.0.0.0.0.e.E.(.0XiXiXiXb t P.L.S e 5 w 0 c T A.$.0 0 5 . 5 g J.T.( 9 9XiXiX0X(.b.| {.0.0.0.0.0.0.0.0.0.0.0.0.0.",
"0.0.0.0.0.0.0.0.0.0.0.0.0.0.f./ f.(.rX9XN 6 %.*XL.U w 5 O + B A.$.*   4 w h &.oXP.h 7 9X9X(.f. . .7.0.0.0.0.0.0.0.0.0.0.0.0.0.0.",
"0.0.0.0.0.0.0.0.0.0.0.0.0.0.s.v.eXwXpX).7 5 #.=XOX&.t V z c ].`.].C.8 V f O.oX=XL.g 8 E.pXwXeXv.o.0.0.0.0.0.0.0.0.0.0.0.0.0.0.0.",
"0.0.0.0.0.0.0.0.0.0.0.0.0.z.7XnXNXnXjXf.! w O.%XOXg.' :XF.I [.yXtXi.R 3Xg.( ,X=X%.g 6 l jXnXNXnX7X0.0.0.0.0.0.0.0.0.0.0.0.0.0.0.",
"0.0.0.0.0.0.0.0.0.0.5.0.0.s.wXhXhXqX8XN 4 g O.oXoXV ^.2XH.p.D.!.D.p.p.].^.p oXOX%.g w 9 8XqXhXhXwX7.0.0.0.0.0.0.0.0.0.0.0.0.0.0.",
"0.0.0.0.0.0.0.0.0.0.0.0.0.z.d.d.r.e.k 8 t g h :.P.a B.G.p.W.D.p.D.W.p.p.V.0 :.L.O.g y 8 )  .o.| | 7.0.0.0.0.0.0.0.0.0.0.0.0.0.0.",
"0.0.0.0.0.0.0.0.0.0.8.0.0.0.| |  ./ Q r g g g O.:.V U.M L D.W.W.`.Q.u.A C.g.j @.g y g r ! } o.6.6.0.0.0.0.0.0.0.0.0.0.0.0.0.0.0.",
"0.0.0.0.0.0.0.0.0.0.0.0.0.0.0.0.8.8.! y g t 5 g ! B.S.= > t.a.a.a.u.K ; C._.p h g * y y ) 6.8.8.0.0.0.0.0.0.0.0.0.0.0.0.0.0.0.0.",
"0.0.0.0.0.0.0.0.0.0.0.0.0.0.0.0.0.0.~ w q w . 0 g.`.Z.= > 2 P 2 3 3 < ; R R.~.c 6 . e e ] 6.0.8.0.0.0.0.0.0.0.0.0.0.0.0.0.0.0.0.",
"0.0.0.0.0.0.0.0.0.0.0.0.0.0.0.0.0.0./ 4 $ $ X x gXH.G $ > K 1 1 1 1 < ; t S.>Xk.! ! q 5 4.8.0.5.0.0.0.0.0.0.0.0.0.0.0.0.0.0.0.0.",
"0.0.0.0.0.0.0.0.0.0.0.0.0.0.0.0.0.0.0.k.O O # B.].M - u E E K < K E E A $ y U.~.v s ! b 7.0.0.0.0.0.0.0.0.0.0.0.0.0.0.0.0.0.0.0.",
"0.0.0.0.0.0.0.0.0.0.0.0.0.0.0.0.0.0.0.0.) ^ B.Y.T = B D.Q.Q.a.u.a.!.G.A.G = m _.K.v ^ n.w.}.|.q.0.q. Xq.0.0.0.0.0.0.0.0.0.0.0.0.",
"0.0.0.0.0.0.0.0.0.0.0.0.0.0.0.0.5.0.0.0.^ j.].#.s G A.!.Q.W.W.Q.W.Q.Q.Q.a.I   B `.~.d | w.@X4X|.0.@X4X@Xw.0.0.0.0.0.0.0.0.0.0.0.",
"0.0.0.0.0.0.0.0.0.0.0.0.0.0.0.0.0.0.0.0.j.>XF.T s ;.H.D.a.!.!.Q.Q.D.a.a.A.;.y m F.'.~.X.w.}.#X@X|.@X#X}.0.0.0.0.0.0.0.0.0.0.0.0.",
"0.0.0.0.0.0.0.0.0.0.0.0.0.0.0.0.5.0.8.8.j._.M y.d S L.U.H.G.A.u.p.W.G.U.L.F $ t M C.).X.0.w.q.@X4X@Xw.w.0.0.0.0.0.0.0.0.0.0.0.0.",
"0.0.0.0.0.0.0.0.0.0.0.0.0.0.0.0.0.0.8.8. .B.c ` d u Y Y U.U.F.A.H._.U.$.Y I @ 0 0 ' f.o.0.0.0.}.#X}.0.0.0.0.0.0.0.0.0.0.0.0.0.0.",
"0.0.0.0.0.0.0.0.0.0.0.0.0.0.0.0.0.0.0.0.} ) } { _ z p.p.Z.Z.Z.Z.Z.i.p.p.p.R e.) ] )  .0.0.0.0.w.q.w.0.0.0.0.0.0.0.0.0.0.0.0.0.0.",
"0.0.0.0.0.0.0.0.0.0.0.0.0.0.0.0.0.0.0.0.0.{ 0.0.0.0.A L u.t.L H L L W E J 0.0.0.6.{ 7.0.0.0.0.0.0.0.0.0.0.0.0.0.0.0.0.0.0.0.0.0.",
"0.0.0.0.0.0.0.0.0.0.0.0.0.0.0.0.0.0.0.0.0.0.0.0.0.0. .i , > ; d j , > j x 0.0.0.0.0.0.0.0.0.0.0.0.0.0.0.0.0.0.0.0.0.0.0.0.0.0.0.",
"0.0.0.0.0.0.0.0.0.0.0.0.0.0.0.0.0.0.0.0.0.0.0.0.0.0.0.v N.S...0. .S.Z...5.0.0.0.0.0.0.0.0.0.0.0.0.0.0.0.0.0.0.0.0.0.0.0.0.0.0.0.",
"0.0.0.0.0.0.0.0.0.0.0.0.0.0.0.0.0.0.0.0.0.0.0.0.0.0.0.] _.].l.0.| ].R...0.0.0.0.0.0.0.0.0.0.0.0.0.0.0.0.0.0.0.0.0.0.0.0.0.0.0.0.",
"0.0.0.0.0.0.0.w.w.0.0.w.w.w.0.0.0.0.0.0.0.0.0.0.8.8.0.] V.F...0. .V.F. .0.0.0.0.0.0.0.0.0.0.0.0.0.0.0.0.0.0.0.0.0.0.0.0.0.0.0.0.",
"0.0.0.0.0.0.w.@X@Xq.w.}.@X}.0.0.0.0.0.0.0.0.0.0.0.0.0.] :X>Xl.0.} :X:Xo.0.0.0.0.0.0.0.0.0.0.0.0.0.0.0.0.0.0.0.0.0.0.0.0.0.0.0.0.",
"0.0.0.0.0.0.q.#X#X}.q.#X4X|.0.0.0.0.0.0.0.0.0.0.0.0.0.] dXuXl.0.| dX2Xo.0.0.0.0.0.0.0.0.0.0.0.0.0.0.0.0.0.0.0.0.0.0.0.0.0.0.0.0.",
"0.0.0.0.0.0.w.}.@X@X@X@X|.q.0.0.0.0.0.0.0.0.0.0.0.0.0.] :XuXl.0.| 3X3Xo.0.0.0.0.0.0.0.0.0.0.0.0.0.0.0.0.0.0.0.0.0.0.0.0.0.0.0.0.",
"0.0.0.0.0.0.0.0.q.#X4X}.0.0.0.0.0.0.0.0.0.0.0.0.0.0.0.] '.>Xl.0.} *X]...0.0.0.0.0.0.0.0.0.0.0.0.0.0.0.0.0.0.0.0.0.0.0.0.0.0.0.0.",
"0.0.0.0.0.0.0.0.w.}. Xq.0.0.0.0.0.0.0.0.0.0.0.0.0.0.0.~ f F...0...N.T ) 0.0.0.0.0.0.0.0.0.0.0.0.0.0.0.0.0.0.0.0.0.0.0.0.0.0.0.0.",
"0.0.0.0.0.0.0.0.0.0.0.0.0.0.0.0.0.0.0.0.0.0.0.0.0.0.0.0.^ ) 0.0.0.) ) 0.6.0.0.0.0.0.0.0.0.0.0.0.0.0.0.0.0.0.0.0.0.0.0.0.0.0.0.0.",
"0.0.0.0.0.0.0.0.0.0.0.0.0.0.0.0.0.0.0.0.0.0.0.0.0.0.0.0.0.0.0.0.0.0.0.0.0.0.0.0.0.0.0.0.0.0.0.0.0.0.0.0.0.0.0.0.0.0.0.0.0.0.0.0.",
"0.0.0.0.0.0.0.0.0.0.0.0.0.0.0.0.0.0.0.0.0.0.0.0.0.0.0.0.0.0.0.0.0.0.0.0.0.0.0.0.0.0.0.0.0.0.0.0.0.0.0.0.0.0.0.0.0.0.0.0.0.0.0.0.",
"0.0.0.0.0.0.0.0.0.0.0.0.0.0.0.0.0.0.0.0.0.0.0.0.0.0.0.0.0.0.0.0.0.8.0.0.0.0.0.0.0.0.0.0.0.0.0.0.0.0.0.0.0.0.0.0.0.0.0.0.0.0.0.0.",
"0.0.0.0.0.0.0.0.0.0.0.0.0.0.0.0.0.0.0.0.0.0.0.0.0.0.0.0.0.0.0.0.8.8.0.0.0.0.0.0.0.0.0.0.0.0.0.0.0.0.0.0.0.0.0.0.0.0.0.0.0.0.0.0."
};
