/* XPM */
static char *e9b90880c94244b1e9f38655e4f78ea6Bkbbzt7VMJNKckwD[] = {
/* columns rows colors chars-per-pixel */
"64 64 212 2 ",
"   c #79736C",
".  c #617D79",
"X  c #7F6875",
"o  c #91655E",
"O  c #97695E",
"+  c #9A6D5E",
"@  c #AA7A5A",
"#  c #A3745D",
"$  c #8B4C70",
"%  c #8C5974",
"&  c #935272",
"*  c #9D5A75",
"=  c #945874",
"-  c #914F71",
";  c #A25E76",
":  c #817A6B",
">  c #9B7762",
",  c #806474",
"<  c #896877",
"1  c #996777",
"2  c #897677",
"3  c #96797E",
"4  c #95727B",
"5  c #A97C61",
"6  c #A56374",
"7  c #AB6476",
"8  c #AB6B7A",
"9  c #A76878",
"0  c #B46D7A",
"q  c #B16977",
"w  c #A37479",
"e  c #AA777A",
"r  c #B6727C",
"t  c #BB737D",
"y  c #B77B7E",
"u  c #778A5A",
"i  c #76965C",
"p  c #6C895C",
"a  c #779260",
"s  c #698477",
"d  c #65837A",
"f  c #6C8779",
"g  c #6A8C7B",
"h  c #6A8979",
"j  c #738D76",
"k  c #758279",
"l  c #718C79",
"z  c #7B887A",
"x  c #6E967C",
"c  c #769077",
"v  c #7B9576",
"b  c #73927B",
"n  c #7B967C",
"m  c #739A7E",
"M  c #7F9A7C",
"N  c #7C806F",
"B  c #7EA37C",
"V  c #938D55",
"C  c #B1825E",
"Z  c #AE9851",
"A  c #8AA45A",
"S  c #BFAC5B",
"D  c #B9B65B",
"F  c #9E8565",
"G  c #839E62",
"H  c #858B7A",
"J  c #92827E",
"K  c #9C877E",
"L  c #859D75",
"P  c #829E7C",
"I  c #879578",
"U  c #999179",
"Y  c #9C9E60",
"T  c #A88565",
"R  c #B38662",
"E  c #B68A63",
"W  c #B98D64",
"Q  c #B58D68",
"!  c #A39569",
"~  c #A69C6A",
"^  c #BC9167",
"/  c #BD9268",
"(  c #BA9F6C",
")  c #AC817E",
"_  c #A6887F",
"`  c #A38779",
"'  c #AC9672",
"]  c #B48C7D",
"[  c #8FA669",
"{  c #9CB46D",
"}  c #8BA376",
"|  c #86A27A",
" . c #8AA479",
".. c #93AB74",
"X. c #9BB273",
"o. c #98B474",
"O. c #93AB6B",
"+. c #AAA56B",
"@. c #BFA66E",
"#. c #B9A66E",
"$. c #A7B86D",
"%. c #A0B673",
"&. c #AEB770",
"*. c #A3BA72",
"=. c #A9BE72",
"-. c #B9B370",
";. c #B5BC71",
":. c #B5B771",
">. c #B3AF70",
",. c #C6B55B",
"<. c #C09669",
"1. c #C49A6C",
"2. c #C0A36E",
"3. c #ACC767",
"4. c #ADC867",
"5. c #ACC46B",
"6. c #A7C465",
"7. c #B4CC6B",
"8. c #BACE6C",
"9. c #B7C56E",
"0. c #BDD26E",
"q. c #ADC272",
"w. c #B2C473",
"e. c #B6C971",
"r. c #B9CD71",
"t. c #B9C371",
"y. c #BED270",
"u. c #C0D26F",
"i. c #C0D470",
"p. c #C6D77C",
"a. c #C0CF6C",
"s. c #E4DA76",
"d. c #EAE27B",
"f. c #BB7681",
"g. c #BF7A83",
"h. c #C27D84",
"j. c #749281",
"k. c #779D80",
"l. c #7B9B83",
"z. c #789782",
"x. c #7CA282",
"c. c #938580",
"v. c #948D82",
"b. c #899883",
"n. c #9B9C85",
"m. c #979584",
"M. c #AB8882",
"N. c #B98885",
"B. c #A99786",
"V. c #B59685",
"C. c #81A585",
"Z. c #85AA86",
"A. c #8BAC84",
"S. c #8BAD89",
"D. c #89A685",
"F. c #95A588",
"G. c #99A889",
"H. c #8DB28A",
"J. c #92B48C",
"K. c #9AB48C",
"L. c #97BB8E",
"P. c #99BC8F",
"I. c #9AB284",
"U. c #9BBE90",
"Y. c #A9A78A",
"T. c #B8A78A",
"R. c #A7B389",
"E. c #B7B98F",
"W. c #A5BC91",
"Q. c #ADBA91",
"!. c #C38289",
"~. c #CA8A8F",
"^. c #D08F91",
"/. c #CE9394",
"(. c #D59797",
"). c #CA928F",
"_. c #DCA19F",
"`. c #DEA6A2",
"'. c #E5AFA8",
"]. c #9DC291",
"[. c #A2C693",
"{. c #ABC694",
"}. c #A5CA95",
"|. c #AACD96",
" X c #BCC191",
".X c #ABD097",
"XX c #ADD399",
"oX c #AED499",
"OX c #AED499",
"+X c #B2D699",
"@X c #B3D699",
"#X c #B6D999",
"$X c #B6D999",
"%X c #B9DA9A",
"&X c #BEDD9A",
"*X c #BCDC9A",
"=X c #B8D396",
"-X c #B1C385",
";X c #C6C487",
":X c #CEDD84",
">X c #CAD88C",
",X c #D2DF8B",
"<X c #C0DF9A",
"1X c #C1DD9A",
"2X c #C1D797",
"3X c #D4E18D",
"4X c #C2E09A",
"5X c #C2E09A",
"6X c #DBE598",
"7X c #D8E2A0",
"8X c #E1E9A0",
"9X c #EBE792",
/* pixels */
"i.i.i.i.i.i.i.i.i.i.i.i.i.i.i.i.i.i.i.i.i.i.i.i.i.i.i.i.i.i.i.i.i.i.i.i.i.i.i.i.i.i.i.i.i.i.i.i.i.i.i.i.i.i.i.i.i.i.i.i.i.i.i.i.",
"i.i.i.i.i.i.i.i.i.i.i.i.i.i.i.i.i.i.i.i.i.i.i.i.i.i.i.i.i.i.i.i.i.i.i.i.i.i.i.i.i.i.i.i.i.i.i.=.} } ..i.i...} } =.i.i.i.i.i.i.i.",
"i.i.i.i.i.i.i.i.i.i.i.i.i.i.i.i.i.i.i.i.i.i.i.i.i.i.i.i.i.i.i.i.i.i.i.i.0.0.0.y.0.0.0.0.i.i.i...l S.A.....A.S.g ..i.i.i.i.i.i.i.",
"i.i.i.i.i.i.i.i.i.i.i.i.i.i.i.i.i.i.i.i.i.i.i.y.q.*.*.*.*.*.*.*.*.*.*.*.X.{ { *.*.5.7.0.i.i.i...C.*X}.j.j.}.*Xb...i.i.i.i.i.i.i.",
"i.i.i.i.i.i.i.i.i.i.i.i.i.i.i.i.i.0.0.0.i.y.0.e.} l l l l l l l l l l l l f f l j O.3.8.i.i.i.X.D.[.H.L.L.H.[.D.X.i.i.i.i.i.i.i.",
"i.i.i.i.i.i.i.i.i.i.i.i.i.i.i.i.i.0.7.7.q.X.X...P j.z.l.l.l.l.l.l.l.l.l.l.z.j.j.b } { w.i.i.i.i.%.l B J.J.B l *.i.i.i.i.i.i.i.i.",
"i.i.i.i.i.i.i.i.i.i.i.i.i.i.i.i.i.7.6.4.} s s f C.J.].}.}.}.}.}.}.}.}.}.}.U.J.J.S.n c *.i.i.i.i.i.y.e.m m e.i.i.i.i.i.i.i.i.i.i.",
"i.i.i.i.i.i.i.i.i.i.i.i.i.i.i.i.q.......P z.l.C.J.[..X+X#X#X#X#X#X+XoX+X#X.X}.[.].D.n  .X.X.*.e.y.y.y.y.y.y.i.i.i.i.i.i.i.i.i.i.",
"i.i.i.i.i.i.i.i.i.i.i.i.i.i.i.i...s d d l.L.].|..XXXXX+X*X<X<X<X<X%XoX#X<X<X*X@X.X].S.b d d v q.i.i.i.i.i.i.i.i.i.i.i.i.i.i.i.i.",
"i.i.i.i.i.i.i.i.i.i.i.i.i.i.q...| z.l.C.J.[.|.oXoXoXoX+X*X4X4X4X4X%X+X#X4X4X4X#XXX}.].D.z.z.M } *.r.i.i.i.L v v %.i.=.v v v r.i.",
"i.i.i.i.i.i.i.i.i.i.i.i.i.i.X.s z.J.[.XXXXXXoXoXoXoXoX+X*X4X4X4X4X%X+X#X4X4X4X#XoXoX.X].L.L.Z.g v q.i.i.i.f S.P.A.L  .P.J.. r.i.",
"i.i.i.i.i.i.i.i.i.i.i.i.q...| l.S.[..X%X%X%X%X#X+X+X#X%X<X4X4X*X%X#XoX+X%X%X%X+XoXoXXX}.[.[.U.C.P  .%.r.i.f {.@XJ.l.S.XX=X. r.i.",
"i.i.i.i.i.i.i.i.i.i.y.y.X.f z.J.[.XX%X4X4X4X4X*X#X+X*X4X4X4X4X*X+XoXoXoXoXoXoXoXoXoXoXoXoXoX|.].Z.f L w.y.} I.S.H.L.J.S.J.} y.i.",
"i.i.i.i.i.i.i.i.i.i.w...| l.Z.L.[.XX%X4X4X4X4X<X*X*X*X4X4X*X%X#XoXoXoX+X%X%X%X%X%X+XoXoXoXoX|.].J.C.P } %.y.} } A.H.A.| L i.i.i.",
"i.i.i.i.i.i.i.i.i.i.*.l j.J.P.P.[.XX#X<X<X<X4X4X4X*X<X<X<X*X+XoXoXoXoX#X4X1X2X2X*X@XoX|.|.|.{.].L.L.C.d L r.i.i.o.B o.i.i.i.i.i.",
"i.i.i.i.i.i.i.i.i.i.*.l z.U.}.}.|.oX+X#X#X#X*X4X4X<X%X#X#X@XoXoXoXoXoX#X4XE.V.V.V. X=XT.B.M.B.K.L.L.C.d L r.i.i.i.i.i.i.i.i.i.i.",
"i.i.i.i.i.i.i.i.y.e.X.b l.}.oXXXoXoXoXoXoXoX%X*X*X*X+XoXoXoXoXoXoXoXoX=X=XT.r 0 r T. XN.7 7 w n.K.L.Z.g L q.r.y.i.i.i.i.i.i.i.i.",
"i.i.i.i.i.i.i.i.w.} P C.J.|.oXXXoXoXoXoXoXoX+X#X#X@X+XoXoXoXoXoXoXoXoXE.V.).(.^.~.N.N.y 0 0 8 4 v.W.U.Z.C.L X.8.0.0.0.0.0.i.i.i.",
"i.i.i.i.i.i.i.i.=.c g S.]..XoXoXoXoXoXoXoXoXoXoXoXoXoXoXoXoXoXoXoXoXoXY.q ~.'._.^.g.q t t t q & 4 W.}.P.C.. L 7.0.0.7.7.0.i.i.i.",
"i.i.i.i.0.0.0.0.=.j g S.]..XXXoXoXoXoXoXoXoXoXoXoXoXoXoXoXoXoXoXoXoXoXB.6 !._.^.!.g.t t t t q & 4 W.}.P.C.. L 4.8.7.4.4.8.i.i.i.",
"i.i.i.i.0.7.7.0.=.j g S.].}.{.Q.Q.Q.{.XX{.Q.Q.Q.{.|.XXoXoXoXoXoXoXoXoXY.e N.~.h.t t t t t 0 8 1 c.W.[.P.C.. } 7.7.7.7.7.0.i.i.i.",
"i.i.i.i.8.4.4.7.*.j g S.P.].Y.M.) ) Y.XXY.) e _ Y.[.|.oXoXoXoXoXoXXXoX{.Q.B.q r t r 0 t 0 ; 1 v.G.L.U.P.C.. } 7.3.4.0.i.i.i.i.i.",
"i.i.i.i.0.7.7.7.{ j g S.K.G.B.N.g.f.V.Q.M.q 7 9 K F.[.oXoXoXoXoXoXoXoXoXoXY.w 8 8 7 6 7 8 4 c.G.L.L.J.Z.C.v X.8.7.7.0.i.i.i.i.i.",
"i.i.i.i.i.i.0.3.{ j g S.G.) !._.(.^.!.e r t t 0 1 4 R.oXoXoXoXoXoXoXoXoXoXW.G.3 & & & & 1 B.W.L.L.L.Z.g P =.e.y.i.i.i.i.i.i.i.i.",
"i.i.i.i.i.i.0.7.*.j g S.n.8 !.`.(.^.h.0 t t t 0 * < G.}.}.}.}.|.XXoXoX.X}.[.].n.3 3 3 4 J K.[.U.L.L.C.d L r.i.i.i.i.i.i.i.i.i.i.",
"i.i.i.i.i.i.i.y.=.c g S.n.9 f.(.^.h.t t t t t 0 * % n.P.P.P.P.[..XoXoX}.U.[..X{.{.{.W.K.K.L.P.P.L.L.C.d L r.i.i.i.i.i.i.i.i.i.i.",
"i.i.i.i.i.i.i.i.w...P C.b.K M.!.h.t t t t t q 6 4 J F.L.L.L.L.].[.}.}.].L.].}.}.}.}.[.].L.L.L.L.L.L.S.z.P ..q.y.i.i.i.i.i.i.i.i.",
"i.i.i.i.i.i.i.i.y.r.%.l j.S.m.6 q t 0 q 0 t ; % v.J.L.L.L.L.L.P.P.P.P.P.L.P.P.P.P.P.P.P.L.L.L.L.L.L.L.J.C.f ..y.i.i.i.i.i.i.i.i.",
"i.i.i.i.i.i.i.i.i.i.*.l j.J.G.K w 6 ; * ; 6 4 c.F.L.L.L.L.L.L.L.L.L.L.L.L.L.L.L.L.L.L.L.L.L.L.L.L.L.L.L.C.. } y.i.i.i.i.i.i.i.i.",
"i.i.i.i.i.i.i.i.i.y.*.l j.J.L.L.c.$ $ $ $ % v.L.L.L.L.L.L.L.L.L.L.L.L.L.L.L.L.L.L.L.L.L.L.L.L.L.L.L.L.L.C.. } y.i.i.i.i.i.i.i.i.",
"i.i.i.i.i.i.i.i.e.X.L g k.J.L.L.F.J J J J c.F.L.L.L.L.L.L.L.L.L.L.L.L.L.L.L.L.L.L.L.L.L.L.L.L.L.L.L.J.Z.z.. } y.i.i.i.i.i.i.i.i.",
"i.i.i.i.i.i.i.i.=.c d x x.J.L.L.L.L.L.L.L.L.L.L.L.L.L.L.L.L.L.L.L.L.L.L.L.L.L.L.L.L.L.L.L.L.L.L.L.L.S.m g . } y.i.i.i.i.i.i.i.i.",
"i.i.i.i.i.i.i.i.=.c d x m x.C.C.H.L.H.C.C.C.H.L.L.J.Z.C.C.C.C.S.L.L.L.L.L.L.L.L.L.S.C.C.C.C.C.C.C.C.x.m g . } y.i.i.i.i.i.i.i.i.",
"i.i.i.i.i.i.i.i.=.c d x x x x x C.L.C.x x m Z.L.L.H.x.x x x x x.J.K.K.K.L.L.K.K.J.x.x x x x x x x x x x g . } y.i.i.i.i.i.i.i.i.",
"i.i.i.i.i.i.i.i.=.c d x x x x x C.L.C.x x m Z.L.L.H.x.x x x x H K _ _ n.L.G._ _ K H x x x x x x x x x x g . } y.i.i.i.i.i.i.i.i.",
"i.i.i.i.i.i.i.i.=.c d x x x x x x.J.C.x x m Z.J.J.H.x.m m m b J e r 0 M.G.M.q 7 6 2 l m m m m x x x x x g f ..y.i.i.i.i.i.i.i.i.",
"i.i.i.i.i.i.i.i.=.c d x x x x x m x.m x x x k.x.x.x.Z.S.S.b.J M./.^.~.N._ e r 0 q 1 < b.S.S.C.m x x x d v X.q.y.i.i.i.i.i.i.i.i.",
"i.i.i.i.i.i.i.i.q.L g x x x x x m m m m m m m x x m Z.H.H.n.w !.`.`.(.!.q 0 t t t * % v.H.H.Z.k.x x g . L r.i.i.i.i.i.i.i.i.i.i.",
"i.i.i.i.i.i.i.i.r.q...g h x x x x.H.H.H.H.S.x.x x m k.x.x.H 1 f.(.(.!.h.t t t t t * % z x.x.k.m x x g . L r.i.i.i.i.i.i.i.i.i.i.",
"i.i.i.i.i.i.i.i.i.i.*.l d x x x x.H.H.H.H.H.x.x x x x x x z 2 e !.!.t t t t t 0 8 1 , k x x x x x x g . L r.i.i.i.i.i.i.i.i.i.i.",
"i.i.i.i.i.i.i.i.i.i.*.l d x x x m k.k.k.k.k.m x x x x x x b z 2 8 0 t r q r t 7 = 2 k l x x x x x x g . L r.i.i.i.i.i.i.i.i.i.i.",
"i.i.i.i.i.i.i.i.i.i.q.} b g x x x x x x x x x x x x x x x x x z 2 1 8 7 ; 7 8 1 X k x x x x x x x g x v ..r.i.i.i.i.i.i.i.i.i.i.",
"i.i.i.i.i.i.i.i.i.i.r.w...f h x x x x x x x x x x x x x x x x b l 2 & & - & & 2 l b x x x x x x g d v *.e.y.i.i.i.i.i.i.i.i.i.i.",
"i.i.i.i.i.i.i.i.i.i.i.i.q.} c g g g x x x x x x x x x x x x x x x k X , , , , k x x x x g g g g b M R.p.i.i.i.i.i.i.i.i.i.i.i.i.",
"i.i.i.i.i.i.i.i.i.i.i.i.y.e...d . . h x x x x x x x x x x x x x x x l l l l l x x x x d . . . . v -X7X3Xp.i.i.i.i.i.i.i.i.i.i.i.",
"i.i.i.i.i.i.i.i.i.i.i.i.i.i.=.} L L c g g g g g g g g g g g g g g g g g g g g g g g g v L  .D.D.I.>X6X:Xi.i.a.8.8.0.i.i.i.i.i.i.",
"i.i.i.i.i.i.i.i.i.i.i.i.i.i.y.r.r.r.} . . . . . . . . . . . . . . . . . . . . . . . f X.r.y.p.>X6X,Xp.i.i.u.,.Z Z D u.i.i.i.i.i.",
"i.i.i.i.i.i.i.i.i.i.i.i.i.i.i.i.i.i.=.} } } } L N     : : : : : : : : : :     H } } ..q.i.i.i.:X6X:Xi.i.u.,.9Xd.s.,.D i.i.i.i.i.",
"i.i.i.i.i.i.i.i.i.i.i.i.i.i.i.i.i.i.y.y.y.y.y.9.F o # @ @ @ @ @ @ @ @ @ @ + o +.y.y.y.y.i.i.i.p.p.p.5.i u V s.d.d.S V a G y.i.i.",
"i.i.i.i.i.i.i.i.i.i.i.i.i.i.i.i.i.i.i.i.i.i.i.9.T O @ @ @ @ @ @ @ @ @ @ C # o +.i.i.i.i.i.i.i.i.i.i.$.p A A Z Z Z Y A i a i.i.i.",
"i.i.i.i.i.i.i.i.i.i.i.i.i.i.i.i.i.i.i.i.i.i.i.9.T O 5 R @ @ @ @ @ @ @ C E # o +.y.i.i.i.i.i.i.i.i.i.7.[ i i u Y V u i G { i.i.i.",
"i.i.i.i.i.i.i.i.i.i.y.y.y.y.y.y.y.y.y.i.i.y.r.;.F O 5 R C C C C C C C R E # o ~ r.y.i.i.i.i.i.i.i.i.y.w.[ [ [ 5.{ [ [ { r.y.i.i.",
"i.i.i.i.i.i.i.i.i.i.e.X...q.r.*.} *.r.y.y.y.r.&.F O 5 E E E E E E E E E E 5 o ! w.r.y.y.y.y.i.i.i.i.i.y.r.r.e.y.r.r.r.r.i.i.i.i.",
"i.i.i.i.i.i.i.p.p.i.q.P n  .} | b ..e.e.e.r.e.&.F O 5 E ^ ^ E W ^ / / / / 5 o ! w.e.e.e.r.y.i.i.i.i.i.i.i.i.i.y.i.i.i.i.i.i.i.i.",
"i.i.i.i.i.i.p.3X3Xp.r.R.U 2 2 2 I *.e.w.w.w.;.+.F > R W <.<.W ^ 1.1.1.1.1.T O ! &.;.w.w.e.r.y.y.i.i.i.i.i.i.i.i.i.i.i.i.i.i.i.i.",
"i.i.i.i.i.i.p.6X6X:Xp.;XV.e w 1 U w.w.w.w.;.~ F T Q ^ <.1.1.<.<.1.1.1.1.1.^ R T F +.w.w.w.e.r.y.i.i.i.i.i.i.i.i.i.i.i.i.i.i.i.i.",
"i.i.i.i.i.i.p.:X3X3X3X;X] 0 f.6 ! w.w.w.w.;.! > Q 1.1.1.1.1.1.1.1.1.1.1.1.1.1.T > +.w.w.w.w.e.y.i.i.i.i.i.i.i.i.i.i.i.i.i.i.i.i.",
"i.i.i.i.i.i.i.i.p.6X8X;X' e 8 w +.w.w.w.w.w.&.+.( 1.1.1.1.1.1.1.1.1.1.1.1.1.1.#.+.&.w.w.w.w.e.y.i.i.i.i.i.i.i.i.i.i.i.i.i.i.i.i.",
"i.i.i.i.i.i.i.i.p.:X,Xp.:.' e ' t.e.e.w.w.w.w.;.-.2.2.2.2.2.1.1.1.1.2.2.2.2.2.-.w.w.w.w.w.e.r.y.i.i.i.i.i.i.i.i.i.i.i.i.i.i.i.i.",
"i.i.i.i.i.i.i.i.i.i.i.i.y.t.;.r.y.r.r.w.w.w.w.w.;.:.:.:.:.-.2.1.1.@.-.:.:.:.:.;.w.w.w.w.e.r.y.y.i.i.i.i.i.i.i.i.i.i.i.i.i.i.i.i.",
"i.i.i.i.i.i.i.i.i.i.i.i.i.i.i.i.i.i.r.e.e.e.e.w.w.w.w.w.w.:.@.@.@.-.w.w.w.w.w.w.w.e.e.e.r.y.i.i.i.i.i.i.i.i.i.i.i.i.i.i.i.i.i.i.",
"i.i.i.i.i.i.i.i.i.i.i.i.i.i.i.i.i.i.y.y.y.y.e.w.w.w.w.w.w.w.;.;.;.;.w.w.w.w.w.w.w.r.y.y.y.y.i.i.i.i.i.i.i.i.i.i.i.i.i.i.i.i.i.i.",
"i.i.i.i.i.i.i.i.i.i.i.i.i.i.i.i.i.i.i.i.i.y.r.e.e.e.e.e.e.e.e.e.e.e.e.e.e.e.e.e.e.r.i.i.i.i.i.i.i.i.i.i.i.i.i.i.i.i.i.i.i.i.i.i.",
"i.i.i.i.i.i.i.i.i.i.i.i.i.i.i.i.i.i.i.i.i.i.y.y.y.y.y.y.y.y.y.y.y.y.y.y.y.y.y.y.y.y.i.i.i.i.i.i.i.i.i.i.i.i.i.i.i.i.i.i.i.i.i.i."
};
